<svg xmlns="http://www.w3.org/2000/svg" xmlns:xlink="http://www.w3.org/1999/xlink" xmlns:lucid="lucid" width="1622" height="1142"><g transform="translate(1041 1101)" lucid:page-tab-id="0_0"><path d="M-1500-1500h2500V500h-2500z" fill="#fff"/><path d="M-760-994a6 6 0 0 1 6-6H494a6 6 0 0 1 6 6v928a6 6 0 0 1-6 6H-754a6 6 0 0 1-6-6z" stroke="#248814" stroke-width="2" fill="#fff" fill-opacity="0"/><path d="M-760-1000h56v56h-56v-56z" stroke="#fff" stroke-opacity="0" fill="#248814"/><path d="M-728.24-971.7h-1.18v-1.1c-.12-1.73-1.48-3.07-3.2-3.2-1.9-.13-3.54 1.3-3.67 3.2v1.07h-1.17c-.44 0-.8.36-.8.8v6.13c0 .44.36.8.8.8h9.23c.44 0 .8-.36.8-.8v-6.1c0-.44-.36-.8-.8-.8zm-6.4-1.06c.1-1.02 1-1.77 2-1.67.9.08 1.58.76 1.67 1.67v1.06h-3.72zm5.65 7.08h-7.67v-4.42h7.63z" stroke="#fff" stroke-opacity="0" fill="#fff"/><path d="M-717.73-974.25c-.1-2.45-1.58-4.48-3.87-5.3-1.58-.47-3.16-.14-4.4.9-.68-1.45-1.47-2.6-2.6-3.76-3.24-3.36-7.94-4.3-12.18-2.4-4.04 1.9-6.4 5.63-6.54 10.05v.7c-3.4.97-5.66 4.08-5.5 7.65v.63c.4 4.28 3.92 7.52 8.2 7.47h26s7.42-.63 7.42-8.1c.04-3.9-2.66-7.2-6.53-7.86zm-.96 14.38h-25.9c-3.47.06-6.3-2.52-6.6-5.96v-.52c-.15-3.05 1.93-5.7 4.92-6.3.38-.12.63-.48.6-.9-.06-.4-.06-.73 0-1.15.07-3.78 2.1-6.94 5.52-8.6 1.25-.57 2.4-.8 3.83-.84 2.62.08 4.87 1.04 6.7 2.94 1.25 1.3 2.04 2.6 2.62 4.3.03.15.1.28.24.37.37.27.87.2 1.12-.17.83-1.18 2.25-1.67 3.62-1.3 1.8.72 2.87 2.4 2.83 4.32-.07.4.22.82.64.9 3.57.36 6.2 3.55 5.82 7.12-.3 3.13-2.7 5.52-5.82 5.85z" stroke="#fff" stroke-opacity="0" fill="#fff"/><use xlink:href="#a" transform="matrix(1,0,0,1,-689,-980) translate(0 14.4)"/><use xlink:href="#b" transform="matrix(1,0,0,1,-689,-980) translate(55.5 14.4)"/><use xlink:href="#c" transform="matrix(1,0,0,1,-689,-980) translate(116.4 14.4)"/><path d="M-1020-1074a6 6 0 0 1 6-6H554a6 6 0 0 1 6 6V14a6 6 0 0 1-6 6h-1568a6 6 0 0 1-6-6z" stroke="#232f3e" stroke-width="2" fill="#fff" fill-opacity="0"/><path d="M-1020-1080h56v56h-56v-56z" stroke="#fff" stroke-opacity="0" fill="#232f3e"/><path d="M-979.12-1038.78h-25c-4.13.05-7.57-3.1-7.9-7.2v-.64c-.15-3.4 1.97-6.38 5.25-7.36v-.66c.12-4.22 2.44-7.75 6.24-9.57 4.13-1.86 8.73-.96 11.8 2.3 1.1 1.1 1.85 2.2 2.45 3.6 1.2-1 2.72-1.32 4.24-.9 2.24.8 3.68 2.74 3.76 5.1 3.68.65 6.32 3.8 6.28 7.56 0 7.07-7.04 7.73-7.12 7.76zm-26.7-13.88c-2.83.6-4.75 3.14-4.6 6.04v.53c.3 3.33 3.1 5.84 6.4 5.76h24.98c3.04-.3 5.4-2.64 5.68-5.7.28-3.43-2.24-6.5-5.68-6.78-.44-.05-.72-.45-.64-.87.08-1.83-1-3.44-2.72-4.13-1.32-.37-2.64.13-3.44 1.24-.2.25-.44.38-.76.33-.28-.05-.48-.24-.6-.5-.6-1.6-1.4-2.85-2.6-4.04-2.7-2.8-6.6-3.6-10.13-2-3.24 1.6-5.2 4.63-5.32 8.24-.04.4-.04.74 0 1.14.04.4-.2.76-.6.84z" stroke="#fff" stroke-opacity="0" fill="#fff"/><use xlink:href="#d" transform="matrix(1,0,0,1,-949,-1060) translate(0 14.4)"/><use xlink:href="#e" transform="matrix(1,0,0,1,-949,-1060) translate(45.3 14.4)"/><path d="M-720-724a6 6 0 0 1 6-6h368a6 6 0 0 1 6 6v618a6 6 0 0 1-6 6h-368a6 6 0 0 1-6-6z" fill="#fff" fill-opacity="0"/><path d="M-702-730h8m8 0h8m8 0h8m8 0h8m8 0h8m8 0h8m8 0h8m8 0h8m8 0h8m8 0h8m8 0h8m8 0h8m8 0h8m8 0h8m8 0h8m8 0h8m8 0h8m8 0h8m8 0h8m8 0h8m8 0h8m8 0h8m8 0h4l.94.07.9.22.88.35.8.5.72.6.6.72.5.8.37.88.23.9.07.95v3.96m0 7.92v7.93m0 7.93v7.92m0 7.93v7.92m0 7.92v7.93m0 7.92v7.92m0 7.9v7.94m0 7.92v7.92m0 7.93v7.93m0 7.92v7.93m0 7.92v7.92m0 7.93v7.92m0 7.92v7.9m0 7.94v7.92m0 7.92v7.93m0 7.93v7.92m0 7.93v7.92m0 7.92v7.93m0 7.92v7.92m0 7.92v7.92m0 7.92v7.93m0 7.9v7.93m0 7.92v7.93m0 7.92v7.92m0 7.93v7.92m0 7.92v7.92m0 7.92v7.92m0 7.93v7.9m0 7.93v7.92m0 7.93v7.92m0 7.92v7.93m0 7.92v7.92m0 7.92v7.92m0 7.92v7.92m0 7.93v7.93m0 7.92v7.93m0 7.92v7.92m0 7.93v7.92m0 7.92v7.9m0 7.94v3.96l-.07.94-.22.9-.35.88-.5.8-.6.72-.72.6-.8.5-.88.37-.9.23-.95.07h-4m-8 0h-8m-8 0h-8m-8 0h-8m-8 0h-8m-8 0h-8m-8 0h-8m-8 0h-8m-8 0h-8m-8 0h-8m-8 0h-8m-8 0h-8m-8 0h-8m-8 0h-8m-8 0h-8m-8 0h-8m-8 0h-8m-8 0h-8m-8 0h-8m-8 0h-8m-8 0h-8m-8 0h-8m-8 0h-8m-8 0h-4l-.94-.07-.9-.22-.88-.35-.8-.5-.72-.6-.6-.72-.5-.8-.37-.88-.23-.9-.07-.95v-3.96m0-7.93v-7.9m0-7.93v-7.92m0-7.93v-7.92m0-7.92v-7.93m0-7.92v-7.92m0-7.92v-7.92m0-7.92v-7.92m0-7.93v-7.93m0-7.92v-7.93m0-7.92v-7.92m0-7.93v-7.92m0-7.92v-7.92m0-7.92v-7.92m0-7.93v-7.9m0-7.93v-7.92m0-7.93v-7.92m0-7.92v-7.93m0-7.92v-7.92m0-7.92v-7.92m0-7.92v-7.93m0-7.9v-7.93m0-7.92v-7.93m0-7.92v-7.92m0-7.93v-7.92m0-7.92v-7.92m0-7.92v-7.92m0-7.92v-7.93m0-7.93v-7.92m0-7.93v-7.92m0-7.92v-7.93m0-7.92v-7.92m0-7.9v-7.94m0-7.92v-7.92m0-7.93v-7.93m0-7.92v-7.93m0-7.92v-7.92m0-7.93v-7.92m0-7.92v-7.9m0-7.94V-724l.07-.94.22-.9.35-.88.5-.8.6-.72.72-.6.8-.5.88-.37.9-.23.95-.07h4" stroke="#147eba" stroke-width="2" fill="none"/><use xlink:href="#f" transform="matrix(1,0,0,1,-720,-710) translate(124.82499999999999 14.4)"/><use xlink:href="#g" transform="matrix(1,0,0,1,-720,-710) translate(214.225 14.4)"/><path d="M-660-634a6 6 0 0 1 6-6H414a6 6 0 0 1 6 6v208a6 6 0 0 1-6 6H-654a6 6 0 0 1-6-6z" stroke="#dd3522" stroke-width="2" fill="#fff" fill-opacity="0"/><use xlink:href="#h" transform="matrix(1,0,0,1,-660,-620) translate(480.075 14.4)"/><use xlink:href="#i" transform="matrix(1,0,0,1,-660,-620) translate(549.975 14.4)"/><path d="M-700-654a6 6 0 0 1 6-6h308a6 6 0 0 1 6 6v208a6 6 0 0 1-6 6h-308a6 6 0 0 1-6-6z" fill="#147eba" fill-opacity=".13"/><path d="M-700-660h56v56h-56v-56z" stroke="#fff" stroke-opacity="0" fill="#147eba"/><path d="M-656.62-637.82c-.15-.17-.34-.25-.56-.25h-5.15v-5.58c-.03-2.54-.96-4.7-2.84-6.4-1.9-1.84-4.15-2.75-6.77-2.75-2.65 0-4.9.83-6.8 2.62-1.9 1.7-2.87 3.87-2.9 6.4v5.66h-5.15c-.24 0-.43.1-.58.25-.16.17-.22.34-.22.6V-612c0 .43.34.8.8.8h29.6c.46 0 .8-.37.8-.8v-25.28c0-.2-.06-.38-.22-.54zm-23.46-5.9c.03-2.13.8-3.88 2.37-5.3 1.6-1.5 3.52-2.2 5.73-2.2 2.22 0 4.12.75 5.7 2.25 1.54 1.4 2.32 3.2 2.32 5.32v5.58h-16.16zm22.1 30.94h-28.03v-23.7h28z" stroke="#fff" stroke-opacity="0" fill="#fff"/><path d="M-672.8-622.7v6.25h1.6v-6.23c2.13-.4 3.62-2.2 3.63-4.35 0-2.43-1.97-4.4-4.4-4.43-2.2-.03-4.06 1.5-4.44 3.68-.42 2.4 1.2 4.68 3.6 5.1zm.82-7.15c.78 0 1.44.27 2 .83.54.55.82 1.2.8 2 .03 1.54-1.2 2.8-2.74 2.8h-.06c-1.56.13-2.92-1.04-3.04-2.6-.12-1.56 1.05-2.93 2.6-3.03.16-.02.28-.02.44 0z" stroke="#fff" stroke-opacity="0" fill="#fff"/><use xlink:href="#j" transform="matrix(1,0,0,1,-629,-640) translate(0 14.4)"/><use xlink:href="#k" transform="matrix(1,0,0,1,-629,-640) translate(60.9 14.4)"/><path d="M-280-986.58a6 6 0 0 1 6-6H24a6 6 0 0 1 6 6v228a6 6 0 0 1-6 6h-298a6 6 0 0 1-6-6z" fill="#248814" fill-opacity=".13"/><path d="M-280-992.58h56v56h-56v-56z" stroke="#fff" stroke-opacity="0" fill="#248814"/><path d="M-236.62-970.4c-.15-.17-.34-.26-.56-.26h-5.15v-5.57c-.03-2.54-.96-4.7-2.84-6.4-1.9-1.84-4.15-2.75-6.77-2.75-2.65 0-4.9.83-6.8 2.62-1.9 1.7-2.87 3.87-2.9 6.4v5.66h-5.15c-.24 0-.43.08-.58.25-.16.17-.22.33-.22.58v25.3c0 .4.34.8.8.8h29.6c.46 0 .8-.4.8-.8v-25.3c0-.2-.06-.37-.22-.54zm-23.46-5.92c.03-2.12.8-3.86 2.37-5.28 1.6-1.5 3.52-2.2 5.73-2.2 2.22 0 4.12.75 5.7 2.24 1.54 1.42 2.32 3.2 2.32 5.33v5.57h-16.16zm22.1 30.96h-28.03v-23.72h28z" stroke="#fff" stroke-opacity="0" fill="#fff"/><path d="M-252.8-955.27v6.24h1.6v-6.23c2.13-.4 3.62-2.2 3.63-4.35 0-2.44-1.97-4.42-4.4-4.44-2.2-.03-4.07 1.5-4.44 3.68-.42 2.4 1.2 4.68 3.6 5.1zm.82-7.16c.78 0 1.44.27 2 .82.54.55.82 1.2.8 2 .03 1.53-1.2 2.8-2.74 2.8h-.06c-1.56.13-2.92-1.04-3.04-2.6-.1-1.56 1.05-2.93 2.6-3.03.16-.02.28-.02.44 0z" stroke="#fff" stroke-opacity="0" fill="#fff"/><use xlink:href="#l" transform="matrix(1,0,0,1,-209,-972.583765739116) translate(0 14.4)"/><use xlink:href="#m" transform="matrix(1,0,0,1,-209,-972.583765739116) translate(53.900000000000006 14.4)"/><path d="M-640-594a6 6 0 0 1 6-6h228a6 6 0 0 1 6 6v148a6 6 0 0 1-6 6h-228a6 6 0 0 1-6-6z" fill="#fff" fill-opacity="0"/><path d="M-621.8-600h8.16m8.14 0h8.14m8.15 0h8.13m8.14 0h8.14m8.16 0h8.14m8.14 0h8.15m8.13 0h8.14m8.14 0h8.16m8.14 0h8.14m8.15 0h8.13m8.14 0h8.14m8.16 0h8.14m8.14 0h8.15m8.13 0h4.07l.94.07.9.22.88.35.8.5.72.6.6.72.5.8.37.88.23.9.07.95v4.1m0 8.23v8.23m0 8.22v8.22m0 8.22v8.22m0 8.23v8.22m0 8.2v8.23m0 8.23v8.22m0 8.22v8.22m0 8.22v8.23m0 8.22v4.1l-.07.94-.22.9-.35.88-.5.8-.6.72-.72.6-.8.5-.88.37-.9.23-.95.07h-4.07m-8.14 0h-8.16m-8.14 0h-8.14m-8.15 0h-8.13m-8.14 0h-8.14m-8.16 0h-8.14m-8.14 0h-8.15m-8.13 0h-8.14m-8.14 0h-8.16m-8.14 0h-8.14m-8.15 0h-8.13m-8.14 0h-8.14m-8.16 0h-8.14m-8.14 0h-8.15m-8.13 0H-634l-.94-.07-.9-.22-.88-.35-.8-.5-.72-.6-.6-.72-.5-.8-.37-.88-.23-.9-.07-.95v-4.1m0-8.23v-8.23m0-8.22V-483m0-8.22v-8.22m0-8.23v-8.22m0-8.2v-8.23m0-8.23v-8.22m0-8.22v-8.22m0-8.22v-8.23m0-8.22v-4.1l.07-.94.22-.9.35-.88.5-.8.6-.72.72-.6.8-.5.88-.37.9-.23.95-.07h4.07" stroke="#d86613" stroke-width="2" fill="none"/><path d="M-640-600h56v56h-56v-56z" stroke="#fff" stroke-opacity="0" stroke-width="2" fill="#d86613"/><path d="M-594.83-569.76h-3.74v-1.48h3.75v-17.94h-17.94v3.74h-1.5v-3.74c0-.82.68-1.5 1.5-1.5h17.93c.82 0 1.5.68 1.5 1.5v17.94c0 .8-.68 1.48-1.5 1.48zM-611.25-553.33h-17.94c-.8 0-1.47-.67-1.47-1.5v-17.93c0-.8.66-1.48 1.48-1.48h3.75v1.48h-3.74v17.94h17.95v-3.74h1.48v3.74c0 .82-.67 1.5-1.48 1.5z" stroke="#fff" stroke-opacity="0" stroke-width="2" fill="#fff"/><path d="M-600.05-578.7v-1.52h-2.25c-.05-.8-.7-1.43-1.48-1.48v-2.25h-1.5v2.25h-2.23v-2.25h-1.5v2.25h-2.26v-2.25h-1.48v2.25H-615v-2.25h-1.47v2.25h-2.24v-2.25h-1.52v2.25c-.8.05-1.43.7-1.48 1.48h-2.25v1.5h2.25v2.25h-2.25v1.48h2.25v2.26h-2.25v1.48h2.25v2.25h-2.25v1.5h2.25v2.2h-2.25v1.52h2.25c.05.8.7 1.43 1.48 1.48v2.25h1.5v-2.25h2.25v2.25h1.48v-2.25h2.26v2.25h1.48v-2.25h2.25v2.25h1.5v-2.25h2.2v2.25h1.52v-2.25c.8-.05 1.43-.7 1.48-1.48h2.25v-1.5h-2.25v-2.23h2.25v-1.5h-2.25v-2.26h2.25v-1.48h-2.25V-575h2.25v-1.47h-2.25v-2.24zm-3.73 14.78c0 .07-.07.14-.14.14h-16.16c-.07 0-.14-.07-.14-.14v-16.16c0-.07.07-.14.14-.14h16.16c.07 0 .14.07.14.14z" stroke="#fff" stroke-opacity="0" stroke-width="2" fill="#fff"/><use xlink:href="#n" transform="matrix(1,0,0,1,-569,-580) translate(0 14.4)"/><use xlink:href="#o" transform="matrix(1,0,0,1,-569,-580) translate(41.95 14.4)"/><use xlink:href="#p" transform="matrix(1,0,0,1,-569,-580) translate(81.9 14.4)"/><path d="M-700-354a6 6 0 0 1 6-6h308a6 6 0 0 1 6 6v208a6 6 0 0 1-6 6h-308a6 6 0 0 1-6-6z" fill="#147eba" fill-opacity=".13"/><path d="M-700-360h56v56h-56v-56z" stroke="#fff" stroke-opacity="0" fill="#147eba"/><path d="M-656.62-337.82c-.15-.17-.34-.25-.56-.25h-5.15v-5.58c-.03-2.54-.96-4.7-2.84-6.4-1.9-1.83-4.15-2.75-6.77-2.75-2.65 0-4.9.83-6.8 2.62-1.9 1.7-2.87 3.87-2.9 6.4v5.66h-5.15c-.24 0-.43.1-.58.25-.16.17-.22.34-.22.6V-312c0 .43.34.8.8.8h29.6c.46 0 .8-.37.8-.8v-25.28c0-.2-.06-.38-.22-.54zm-23.46-5.9c.03-2.13.8-3.88 2.37-5.3 1.6-1.5 3.52-2.2 5.73-2.2 2.22 0 4.12.75 5.7 2.25 1.54 1.4 2.32 3.2 2.32 5.32v5.58h-16.16zm22.1 30.94h-28.03v-23.7h28z" stroke="#fff" stroke-opacity="0" fill="#fff"/><path d="M-672.8-322.7v6.25h1.6v-6.23c2.13-.4 3.62-2.2 3.63-4.35 0-2.43-1.97-4.4-4.4-4.43-2.2-.03-4.06 1.5-4.44 3.68-.42 2.4 1.2 4.68 3.6 5.1zm.82-7.15c.78 0 1.44.27 2 .83.54.55.82 1.2.8 2 .03 1.54-1.2 2.8-2.74 2.8h-.06c-1.56.13-2.92-1.04-3.04-2.6-.12-1.56 1.05-2.93 2.6-3.03.16-.02.28-.02.44 0z" stroke="#fff" stroke-opacity="0" fill="#fff"/><use xlink:href="#j" transform="matrix(1,0,0,1,-629,-340) translate(0 14.4)"/><use xlink:href="#k" transform="matrix(1,0,0,1,-629,-340) translate(60.9 14.4)"/><path d="M-320-724a6 6 0 0 1 6-6H54a6 6 0 0 1 6 6v618a6 6 0 0 1-6 6h-368a6 6 0 0 1-6-6z" fill="#fff" fill-opacity="0"/><path d="M-302-730h8m8 0h8m8 0h8m8 0h8m8 0h8m8 0h8m8 0h8m8 0h8m8 0h8m8 0h8m8 0h8m8 0h8m8 0h8m8 0h8m8 0h8m8 0h8m8 0h8m8 0h8m8 0h8m8 0h8m8 0h8m8 0h8m8 0h4l.94.07.9.22.88.35.8.5.72.6.6.72.5.8.37.88.23.9.07.95v3.96m0 7.92v7.93m0 7.93v7.92m0 7.93v7.92m0 7.92v7.93m0 7.92v7.92m0 7.9v7.94m0 7.92v7.92m0 7.93v7.93m0 7.92v7.93m0 7.92v7.92m0 7.93v7.92m0 7.92v7.9m0 7.94v7.92m0 7.92v7.93m0 7.93v7.92m0 7.93v7.92m0 7.92v7.93m0 7.92v7.92m0 7.92v7.92m0 7.92v7.93m0 7.9v7.93m0 7.92v7.93m0 7.92v7.92m0 7.93v7.92m0 7.92v7.92m0 7.92v7.92m0 7.93v7.9m0 7.93v7.92m0 7.93v7.92m0 7.92v7.93m0 7.92v7.92m0 7.92v7.92m0 7.92v7.92m0 7.93v7.93m0 7.92v7.93m0 7.92v7.92m0 7.93v7.92m0 7.92v7.9m0 7.94v3.96l-.07.94-.22.9-.35.88-.5.8-.6.72-.72.6-.8.5-.88.37-.9.23-.95.07h-4m-8 0h-8m-8 0h-8m-8 0H2m-8 0h-8m-8 0h-8m-8 0h-8m-8 0h-8m-8 0h-8m-8 0h-8m-8 0h-8m-8 0h-8m-8 0h-8m-8 0h-8m-8 0h-8m-8 0h-8m-8 0h-8m-8 0h-8m-8 0h-8m-8 0h-8m-8 0h-8m-8 0h-8m-8 0h-8m-8 0h-4l-.94-.07-.9-.22-.88-.35-.8-.5-.72-.6-.6-.72-.5-.8-.37-.88-.23-.9-.07-.95v-3.96m0-7.93v-7.9m0-7.93v-7.92m0-7.93v-7.92m0-7.92v-7.93m0-7.92v-7.92m0-7.92v-7.92m0-7.92v-7.92m0-7.93v-7.93m0-7.92v-7.93m0-7.92v-7.92m0-7.93v-7.92m0-7.92v-7.92m0-7.92v-7.92m0-7.93v-7.9m0-7.93v-7.92m0-7.93v-7.92m0-7.92v-7.93m0-7.92v-7.92m0-7.92v-7.92m0-7.92v-7.93m0-7.9v-7.93m0-7.92v-7.93m0-7.92v-7.92m0-7.93v-7.92m0-7.92v-7.92m0-7.92v-7.92m0-7.92v-7.93m0-7.93v-7.92m0-7.93v-7.92m0-7.92v-7.93m0-7.92v-7.92m0-7.9v-7.94m0-7.92v-7.92m0-7.93v-7.93m0-7.92v-7.93m0-7.92v-7.92m0-7.93v-7.92m0-7.92v-7.9m0-7.94V-724l.07-.94.22-.9.35-.88.5-.8.6-.72.72-.6.8-.5.88-.37.9-.23.95-.07h4" stroke="#147eba" stroke-width="2" fill="none"/><use xlink:href="#f" transform="matrix(1,0,0,1,-320,-710) translate(124.82499999999999 14.4)"/><use xlink:href="#g" transform="matrix(1,0,0,1,-320,-710) translate(214.225 14.4)"/><path d="M-300-654a6 6 0 0 1 6-6H14a6 6 0 0 1 6 6v208a6 6 0 0 1-6 6h-308a6 6 0 0 1-6-6z" fill="#147eba" fill-opacity=".13"/><path d="M-300-660h56v56h-56v-56z" stroke="#fff" stroke-opacity="0" fill="#147eba"/><path d="M-256.62-637.82c-.15-.17-.34-.25-.56-.25h-5.15v-5.58c-.03-2.54-.97-4.7-2.84-6.4-1.9-1.84-4.15-2.75-6.77-2.75-2.65 0-4.9.83-6.8 2.62-1.9 1.7-2.87 3.87-2.9 6.4v5.66h-5.15c-.24 0-.43.1-.58.25-.16.17-.22.34-.22.6V-612c0 .43.34.8.8.8h29.6c.46 0 .8-.37.8-.8v-25.28c0-.2-.06-.38-.22-.54zm-23.46-5.9c.03-2.13.8-3.88 2.37-5.3 1.6-1.5 3.52-2.2 5.73-2.2 2.22 0 4.12.75 5.7 2.25 1.54 1.4 2.32 3.2 2.32 5.32v5.58h-16.16zm22.1 30.94h-28.03v-23.7h28z" stroke="#fff" stroke-opacity="0" fill="#fff"/><path d="M-272.8-622.7v6.25h1.6v-6.23c2.13-.4 3.62-2.2 3.63-4.35 0-2.43-1.97-4.4-4.4-4.43-2.2-.03-4.06 1.5-4.44 3.68-.42 2.4 1.2 4.68 3.6 5.1zm.82-7.15c.78 0 1.44.27 2 .83.54.55.82 1.2.8 2 .03 1.54-1.2 2.8-2.74 2.8h-.06c-1.56.13-2.92-1.04-3.04-2.6-.12-1.56 1.05-2.93 2.6-3.03.16-.02.3-.02.44 0z" stroke="#fff" stroke-opacity="0" fill="#fff"/><use xlink:href="#j" transform="matrix(1,0,0,1,-229,-640) translate(0 14.4)"/><use xlink:href="#k" transform="matrix(1,0,0,1,-229,-640) translate(60.9 14.4)"/><path d="M-240-594a6 6 0 0 1 6-6H-6a6 6 0 0 1 6 6v148a6 6 0 0 1-6 6h-228a6 6 0 0 1-6-6z" fill="#fff" fill-opacity="0"/><path d="M-221.8-600h8.16m8.14 0h8.14m8.15 0h8.13m8.14 0h8.14m8.16 0h8.14m8.14 0h8.15m8.13 0h8.14m8.14 0h8.16m8.14 0h8.14m8.15 0h8.13m8.14 0h8.14m8.16 0h8.14m8.14 0h8.15m8.13 0H-6l.94.07.9.22.88.35.8.5.72.6.6.72.5.8.37.88.23.9.07.95v4.1m0 8.23v8.23m0 8.22v8.22m0 8.22v8.22m0 8.23v8.22m0 8.2v8.23m0 8.23v8.22M0-483v8.22m0 8.22v8.23m0 8.22v4.1l-.07.94-.22.9-.35.88-.5.8-.6.72-.72.6-.8.5-.88.37-.9.23-.95.07h-4.07m-8.14 0h-8.16m-8.14 0h-8.14m-8.15 0h-8.13m-8.14 0h-8.14m-8.16 0h-8.14m-8.14 0h-8.15m-8.13 0h-8.14m-8.14 0h-8.16m-8.14 0h-8.14m-8.15 0h-8.13m-8.14 0h-8.14m-8.16 0h-8.14m-8.14 0h-8.15m-8.13 0H-234l-.94-.07-.9-.22-.88-.35-.8-.5-.72-.6-.6-.72-.5-.8-.37-.88-.23-.9-.07-.95v-4.1m0-8.23v-8.23m0-8.22V-483m0-8.22v-8.22m0-8.23v-8.22m0-8.2v-8.23m0-8.23v-8.22m0-8.22v-8.22m0-8.22v-8.23m0-8.22v-4.1l.07-.94.22-.9.35-.88.5-.8.6-.72.72-.6.8-.5.88-.37.9-.23.95-.07h4.07" stroke="#d86613" stroke-width="2" fill="none"/><path d="M-240-600h56v56h-56v-56z" stroke="#fff" stroke-opacity="0" stroke-width="2" fill="#d86613"/><path d="M-194.82-569.76h-3.75v-1.48h3.75v-17.94h-17.94v3.74h-1.5v-3.74c0-.82.68-1.5 1.5-1.5h17.94c.8 0 1.48.68 1.48 1.5v17.94c0 .8-.67 1.48-1.48 1.48zM-211.25-553.33h-17.94c-.8 0-1.47-.67-1.47-1.5v-17.93c0-.8.66-1.48 1.48-1.48h3.75v1.48h-3.74v17.94h17.95v-3.74h1.48v3.74c0 .82-.67 1.5-1.48 1.5z" stroke="#fff" stroke-opacity="0" stroke-width="2" fill="#fff"/><path d="M-200.05-578.7v-1.52h-2.25c-.05-.8-.7-1.43-1.48-1.48v-2.25h-1.5v2.25h-2.23v-2.25h-1.5v2.25h-2.26v-2.25h-1.48v2.25H-215v-2.25h-1.47v2.25h-2.24v-2.25h-1.52v2.25c-.8.05-1.43.7-1.48 1.48h-2.25v1.5h2.25v2.25h-2.25v1.48h2.25v2.26h-2.25v1.48h2.25v2.25h-2.25v1.5h2.25v2.2h-2.25v1.52h2.25c.05.8.7 1.43 1.48 1.48v2.25h1.5v-2.25h2.25v2.25h1.48v-2.25h2.26v2.25h1.48v-2.25h2.25v2.25h1.5v-2.25h2.2v2.25h1.52v-2.25c.8-.05 1.43-.7 1.48-1.48h2.25v-1.5h-2.25v-2.23h2.25v-1.5h-2.25v-2.26h2.25v-1.48h-2.25V-575h2.25v-1.47h-2.25v-2.24zm-3.73 14.78c0 .07-.07.14-.14.14h-16.16c-.07 0-.14-.07-.14-.14v-16.16c0-.07.07-.14.14-.14h16.16c.07 0 .14.07.14.14z" stroke="#fff" stroke-opacity="0" stroke-width="2" fill="#fff"/><use xlink:href="#n" transform="matrix(1,0,0,1,-169,-580) translate(0 14.4)"/><use xlink:href="#o" transform="matrix(1,0,0,1,-169,-580) translate(41.95 14.4)"/><use xlink:href="#p" transform="matrix(1,0,0,1,-169,-580) translate(81.9 14.4)"/><path d="M-300-354a6 6 0 0 1 6-6H14a6 6 0 0 1 6 6v208a6 6 0 0 1-6 6h-308a6 6 0 0 1-6-6z" fill="#147eba" fill-opacity=".13"/><path d="M-300-360h56v56h-56v-56z" stroke="#fff" stroke-opacity="0" fill="#147eba"/><path d="M-256.62-337.82c-.15-.17-.34-.25-.56-.25h-5.15v-5.58c-.03-2.54-.97-4.7-2.84-6.4-1.9-1.83-4.15-2.75-6.77-2.75-2.65 0-4.9.83-6.8 2.62-1.9 1.7-2.87 3.87-2.9 6.4v5.66h-5.15c-.24 0-.43.1-.58.25-.16.17-.22.34-.22.6V-312c0 .43.34.8.8.8h29.6c.46 0 .8-.37.8-.8v-25.28c0-.2-.06-.38-.22-.54zm-23.46-5.9c.03-2.13.8-3.88 2.37-5.3 1.6-1.5 3.52-2.2 5.73-2.2 2.22 0 4.12.75 5.7 2.25 1.54 1.4 2.32 3.2 2.32 5.32v5.58h-16.16zm22.1 30.94h-28.03v-23.7h28z" stroke="#fff" stroke-opacity="0" fill="#fff"/><path d="M-272.8-322.7v6.25h1.6v-6.23c2.13-.4 3.62-2.2 3.63-4.35 0-2.43-1.97-4.4-4.4-4.43-2.2-.03-4.06 1.5-4.44 3.68-.42 2.4 1.2 4.68 3.6 5.1zm.82-7.15c.78 0 1.44.27 2 .83.54.55.82 1.2.8 2 .03 1.54-1.2 2.8-2.74 2.8h-.06c-1.56.13-2.92-1.04-3.04-2.6-.12-1.56 1.05-2.93 2.6-3.03.16-.02.3-.02.44 0z" stroke="#fff" stroke-opacity="0" fill="#fff"/><use xlink:href="#j" transform="matrix(1,0,0,1,-229,-340) translate(0 14.4)"/><use xlink:href="#k" transform="matrix(1,0,0,1,-229,-340) translate(60.9 14.4)"/><path d="M80-724a6 6 0 0 1 6-6h368a6 6 0 0 1 6 6v618a6 6 0 0 1-6 6H86a6 6 0 0 1-6-6z" fill="#fff" fill-opacity="0"/><path d="M98-730h8m8 0h8m8 0h8m8 0h8m8 0h8m8 0h8m8 0h8m8 0h8m8 0h8m8 0h8m8 0h8m8 0h8m8 0h8m8 0h8m8 0h8m8 0h8m8 0h8m8 0h8m8 0h8m8 0h8m8 0h8m8 0h8m8 0h4l.94.07.9.22.88.35.8.5.72.6.6.72.5.8.37.88.23.9.07.95v3.96m0 7.92v7.93m0 7.93v7.92m0 7.93v7.92m0 7.92v7.93m0 7.92v7.92m0 7.9v7.94m0 7.92v7.92m0 7.93v7.93m0 7.92v7.93m0 7.92v7.92m0 7.93v7.92m0 7.92v7.9m0 7.94v7.92m0 7.92v7.93m0 7.93v7.92m0 7.93v7.92m0 7.92v7.93m0 7.92v7.92m0 7.92v7.92m0 7.92v7.93m0 7.9v7.93m0 7.92v7.93m0 7.92v7.92m0 7.93v7.92m0 7.92v7.92m0 7.92v7.92m0 7.93v7.9m0 7.93v7.92m0 7.93v7.92m0 7.92v7.93m0 7.92v7.92m0 7.92v7.92m0 7.92v7.92m0 7.93v7.93m0 7.92v7.93m0 7.92v7.92m0 7.93v7.92m0 7.92v7.9m0 7.94v3.96l-.07.94-.22.9-.35.88-.5.8-.6.72-.72.6-.8.5-.88.37-.9.23-.95.07h-4m-8 0h-8m-8 0h-8m-8 0h-8m-8 0h-8m-8 0h-8m-8 0h-8m-8 0h-8m-8 0h-8m-8 0h-8m-8 0h-8m-8 0h-8m-8 0h-8m-8 0h-8m-8 0h-8m-8 0h-8m-8 0h-8m-8 0h-8m-8 0h-8m-8 0h-8m-8 0h-8m-8 0h-8m-8 0h-8m-8 0h-4l-.94-.07-.9-.22-.88-.35-.8-.5-.72-.6-.6-.72-.5-.8-.37-.88-.23-.9L80-106v-3.96m0-7.93v-7.9m0-7.93v-7.92m0-7.93v-7.92m0-7.92v-7.93m0-7.92v-7.92m0-7.92v-7.92m0-7.92v-7.92m0-7.93v-7.93m0-7.92v-7.93m0-7.92v-7.92m0-7.93v-7.92m0-7.92v-7.92m0-7.92v-7.92m0-7.93v-7.9m0-7.93v-7.92m0-7.93v-7.92m0-7.92v-7.93m0-7.92v-7.92m0-7.92v-7.92m0-7.92v-7.93m0-7.9v-7.93m0-7.92v-7.93m0-7.92v-7.92m0-7.93v-7.92m0-7.92v-7.92m0-7.92v-7.92m0-7.92v-7.93m0-7.93v-7.92m0-7.93v-7.92m0-7.92v-7.93m0-7.92v-7.92m0-7.9v-7.94m0-7.92v-7.92m0-7.93v-7.93m0-7.92v-7.93m0-7.92v-7.92m0-7.93v-7.92m0-7.92v-7.9m0-7.94V-724l.07-.94.22-.9.35-.88.5-.8.6-.72.72-.6.8-.5.88-.37.9-.23.95-.07h4" stroke="#147eba" stroke-width="2" fill="none"/><use xlink:href="#f" transform="matrix(1,0,0,1,80,-710) translate(124.82499999999999 14.4)"/><use xlink:href="#g" transform="matrix(1,0,0,1,80,-710) translate(214.225 14.4)"/><path d="M100-654a6 6 0 0 1 6-6h308a6 6 0 0 1 6 6v208a6 6 0 0 1-6 6H106a6 6 0 0 1-6-6z" fill="#147eba" fill-opacity=".13"/><path d="M100-660h56v56h-56v-56z" stroke="#fff" stroke-opacity="0" fill="#147eba"/><path d="M143.38-637.82c-.15-.17-.34-.25-.56-.25h-5.15v-5.58c-.03-2.54-.96-4.7-2.84-6.4-1.9-1.84-4.15-2.75-6.77-2.75-2.65 0-4.9.83-6.8 2.62-1.9 1.7-2.87 3.87-2.9 6.4v5.66h-5.15c-.24 0-.43.1-.58.25-.16.17-.22.34-.22.6V-612c0 .43.34.8.8.8h29.6c.46 0 .8-.37.8-.8v-25.28c0-.2-.06-.38-.22-.54zm-23.46-5.9c.03-2.13.8-3.88 2.37-5.3 1.6-1.5 3.52-2.2 5.73-2.2 2.22 0 4.12.75 5.7 2.25 1.54 1.4 2.32 3.2 2.32 5.32v5.58H119.9zm22.1 30.94h-28.03v-23.7h28z" stroke="#fff" stroke-opacity="0" fill="#fff"/><path d="M127.2-622.7v6.25h1.6v-6.23c2.13-.4 3.62-2.2 3.63-4.35 0-2.43-1.97-4.4-4.4-4.43-2.2-.03-4.06 1.5-4.44 3.68-.42 2.4 1.2 4.68 3.6 5.1zm.82-7.15c.78 0 1.44.27 2 .83.54.55.82 1.2.8 2 .03 1.54-1.2 2.8-2.74 2.8h-.06c-1.56.13-2.92-1.04-3.04-2.6-.12-1.56 1.05-2.93 2.6-3.03.16-.02.28-.02.44 0z" stroke="#fff" stroke-opacity="0" fill="#fff"/><use xlink:href="#j" transform="matrix(1,0,0,1,171,-640) translate(0 14.4)"/><use xlink:href="#k" transform="matrix(1,0,0,1,171,-640) translate(60.9 14.4)"/><path d="M160-594a6 6 0 0 1 6-6h228a6 6 0 0 1 6 6v148a6 6 0 0 1-6 6H166a6 6 0 0 1-6-6z" fill="#fff" fill-opacity="0"/><path d="M178.2-600h8.16m8.14 0h8.14m8.15 0h8.13m8.14 0h8.14m8.16 0h8.14m8.14 0h8.15m8.13 0h8.14m8.14 0h8.16m8.14 0h8.14m8.15 0h8.13m8.14 0h8.14m8.16 0h8.14m8.14 0h8.15m8.13 0H394l.94.07.9.22.88.35.8.5.72.6.6.72.5.8.37.88.23.9.07.95v4.1m0 8.23v8.23m0 8.22v8.22m0 8.22v8.22m0 8.23v8.22m0 8.2v8.23m0 8.23v8.22m0 8.22v8.22m0 8.22v8.23m0 8.22v4.1l-.07.94-.22.9-.35.88-.5.8-.6.72-.72.6-.8.5-.88.37-.9.23-.95.07h-4.07m-8.14 0h-8.16m-8.14 0h-8.14m-8.15 0h-8.13m-8.14 0h-8.14m-8.16 0h-8.14m-8.14 0h-8.15m-8.13 0h-8.14m-8.14 0h-8.16m-8.14 0h-8.14m-8.15 0h-8.13m-8.14 0h-8.14m-8.16 0h-8.14m-8.14 0h-8.15m-8.13 0H166l-.94-.07-.9-.22-.88-.35-.8-.5-.72-.6-.6-.72-.5-.8-.37-.88-.23-.9-.07-.95v-4.1m0-8.23v-8.23m0-8.22V-483m0-8.22v-8.22m0-8.23v-8.22m0-8.2v-8.23m0-8.23v-8.22m0-8.22v-8.22m0-8.22v-8.23m0-8.22v-4.1l.07-.94.22-.9.35-.88.5-.8.6-.72.72-.6.8-.5.88-.37.9-.23.95-.07h4.07" stroke="#d86613" stroke-width="2" fill="none"/><path d="M160-600h56v56h-56v-56z" stroke="#fff" stroke-opacity="0" stroke-width="2" fill="#d86613"/><path d="M205.18-569.76h-3.75v-1.48h3.75v-17.94h-17.94v3.74h-1.5v-3.74c0-.82.68-1.5 1.5-1.5h17.94c.8 0 1.48.68 1.48 1.5v17.94c0 .8-.67 1.48-1.48 1.48zM188.75-553.33H170.8c-.8 0-1.47-.67-1.47-1.5v-17.93c0-.8.66-1.48 1.48-1.48h3.75v1.48h-3.74v17.94h17.95v-3.74h1.48v3.74c0 .82-.67 1.5-1.48 1.5z" stroke="#fff" stroke-opacity="0" stroke-width="2" fill="#fff"/><path d="M199.95-578.7v-1.52h-2.25c-.05-.8-.7-1.43-1.48-1.48v-2.25h-1.5v2.25h-2.23v-2.25H191v2.25h-2.26v-2.25h-1.48v2.25H185v-2.25h-1.47v2.25h-2.24v-2.25h-1.52v2.25c-.8.05-1.43.7-1.48 1.48h-2.25v1.5h2.25v2.25h-2.25v1.48h2.25v2.26h-2.25v1.48h2.25v2.25h-2.25v1.5h2.25v2.2h-2.25v1.52h2.25c.05.8.7 1.43 1.48 1.48v2.25h1.5v-2.25h2.25v2.25H185v-2.25h2.26v2.25h1.48v-2.25H191v2.25h1.5v-2.25h2.2v2.25h1.52v-2.25c.8-.05 1.43-.7 1.48-1.48h2.25v-1.5h-2.25v-2.23h2.25v-1.5h-2.25v-2.26h2.25v-1.48h-2.25V-575h2.25v-1.47h-2.25v-2.24zm-3.73 14.78c0 .07-.07.14-.14.14h-16.16c-.07 0-.14-.07-.14-.14v-16.16c0-.07.07-.14.14-.14h16.16c.07 0 .14.07.14.14z" stroke="#fff" stroke-opacity="0" stroke-width="2" fill="#fff"/><use xlink:href="#n" transform="matrix(1,0,0,1,231,-580) translate(0 14.4)"/><use xlink:href="#o" transform="matrix(1,0,0,1,231,-580) translate(41.95 14.4)"/><use xlink:href="#p" transform="matrix(1,0,0,1,231,-580) translate(81.9 14.4)"/><path d="M100-354a6 6 0 0 1 6-6h308a6 6 0 0 1 6 6v208a6 6 0 0 1-6 6H106a6 6 0 0 1-6-6z" fill="#147eba" fill-opacity=".13"/><path d="M100-360h56v56h-56v-56z" stroke="#fff" stroke-opacity="0" fill="#147eba"/><path d="M143.38-337.82c-.15-.17-.34-.25-.56-.25h-5.15v-5.58c-.03-2.54-.96-4.7-2.84-6.4-1.9-1.83-4.15-2.75-6.77-2.75-2.65 0-4.9.83-6.8 2.62-1.9 1.7-2.87 3.87-2.9 6.4v5.66h-5.15c-.24 0-.43.1-.58.25-.16.17-.22.34-.22.6V-312c0 .43.34.8.8.8h29.6c.46 0 .8-.37.8-.8v-25.28c0-.2-.06-.38-.22-.54zm-23.46-5.9c.03-2.13.8-3.88 2.37-5.3 1.6-1.5 3.52-2.2 5.73-2.2 2.22 0 4.12.75 5.7 2.25 1.54 1.4 2.32 3.2 2.32 5.32v5.58H119.9zm22.1 30.94h-28.03v-23.7h28z" stroke="#fff" stroke-opacity="0" fill="#fff"/><path d="M127.2-322.7v6.25h1.6v-6.23c2.13-.4 3.62-2.2 3.63-4.35 0-2.43-1.97-4.4-4.4-4.43-2.2-.03-4.06 1.5-4.44 3.68-.42 2.4 1.2 4.68 3.6 5.1zm.82-7.15c.78 0 1.44.27 2 .83.54.55.82 1.2.8 2 .03 1.54-1.2 2.8-2.74 2.8h-.06c-1.56.13-2.92-1.04-3.04-2.6-.12-1.56 1.05-2.93 2.6-3.03.16-.02.28-.02.44 0z" stroke="#fff" stroke-opacity="0" fill="#fff"/><use xlink:href="#j" transform="matrix(1,0,0,1,171,-340) translate(0 14.4)"/><use xlink:href="#k" transform="matrix(1,0,0,1,171,-340) translate(60.9 14.4)"/><path d="M-660-334a6 6 0 0 1 6-6H394a6 6 0 0 1 6 6v208a6 6 0 0 1-6 6H-654a6 6 0 0 1-6-6z" stroke="#dd3522" stroke-width="2" fill="#fff" fill-opacity="0"/><use xlink:href="#h" transform="matrix(1,0,0,1,-660,-320) translate(470.075 14.4)"/><use xlink:href="#i" transform="matrix(1,0,0,1,-660,-320) translate(539.975 14.4)"/><path d="M-210-947.7a6 6 0 0 1 6-6h158a6 6 0 0 1 6 6v175.4a6 6 0 0 1-6 6h-158a6 6 0 0 1-6-6z" stroke="#dd3522" stroke-width="2" fill="#fff" fill-opacity="0"/><use xlink:href="#h" transform="matrix(1,0,0,1,-210,-933.708117130442) translate(25.074999999999996 14.4)"/><use xlink:href="#i" transform="matrix(1,0,0,1,-210,-933.708117130442) translate(94.975 14.4)"/><path d="M-120-820c-22.08 0-40-17.92-40-40s17.92-40 40-40 40 17.92 40 40-17.92 40-40 40zm0-76.8c-20.32 0-36.8 16.48-36.8 36.8 0 20.32 16.48 36.8 36.8 36.8 20.32 0 36.8-16.48 36.8-36.8 0-20.32-16.48-36.8-36.8-36.8z" stroke="#fff" stroke-opacity="0" stroke-width="3" fill="#693cc5"/><path d="M-96.14-848.8h-3.06v-6.4c0-.9-.7-1.6-1.58-1.6h-4.83v-6.4c0-.9-.73-1.58-1.6-1.58h-11.2v-4.8h11.2c.87 0 1.6-.76 1.6-1.6v-14.43c0-.9-.73-1.6-1.6-1.6h-25.6c-.88 0-1.6.7-1.6 1.6v14.42c0 .84.72 1.6 1.6 1.6h11.2v4.8h-11.2c-.88 0-1.6.7-1.6 1.6v6.38h-4.78c-.9 0-1.63.7-1.63 1.6v6.4h-3.06c-.87 0-1.58.73-1.58 1.58v8.03c0 .9.7 1.6 1.58 1.6h7.84c.92 0 1.63-.7 1.63-1.6v-8.02c0-.85-.7-1.6-1.62-1.6h-1.58v-4.8h8v4.8h-1.58c-.92 0-1.63.75-1.63 1.6v8.03c0 .9.7 1.6 1.62 1.6h8c.86 0 1.57-.7 1.57-1.6v-8.02c0-.85-.72-1.6-1.58-1.6h-3.2v-6.4c0-.88-.73-1.57-1.64-1.57h-3.16v-4.8h22.36v4.8h-3.16c-.92 0-1.63.7-1.63 1.6v6.4h-3.22c-.86 0-1.58.73-1.58 1.58v8.03c0 .9.72 1.6 1.58 1.6h8c.9 0 1.63-.7 1.63-1.6v-8.02c0-.85-.7-1.6-1.62-1.6h-1.58v-4.8h8v4.8h-1.74c-.86 0-1.58.75-1.58 1.6v8.03c0 .9.72 1.6 1.58 1.6h8.05c.88 0 1.6-.7 1.6-1.6v-8.02-.05c-.06-.85-.78-1.54-1.64-1.54zm-41.46 7.98h-4.63v-4.77h4.63zm12.8-4.77v4.78h-4.8v-4.77zm-6.38-27.22v-11.16h22.36v11.16zm20.78 32h-4.8v-4.77h4.8zm12.63 0h-4.8v-4.77h4.8z" stroke="#fff" stroke-opacity="0" stroke-width="3" fill="#693cc5"/><use xlink:href="#q" transform="matrix(1,0,0,1,-190,-811) translate(45.308641975308646 17.77777777777778)"/><use xlink:href="#r" transform="matrix(1,0,0,1,-190,-811) translate(26.234567901234563 44.44444444444444)"/><path d="M-920-280h114v114h-114v-114z" stroke="#fff" stroke-opacity="0" stroke-width="2" fill="#3f8624"/><path d="M-826.63-219.14c-.43-2.36-3.13-4.04-5.02-5.26-.58-.38-2.2-.98-2.33-1.52 0-.38 0-.76.14-1.14l1.53-10.88 1.3-9.67c.37-2.9-1.02-4.88-3.42-6.55-4.88-3.43-11.3-4.8-17.04-5.7-7.58-1.23-14.2-1.46-21.85-.7-6.93.46-12.7 1.83-19.1 4.57-3.2 1.52-7.5 3.88-6.92 8 1.46 12.32 3.28 24.65 4.96 36.98.73 5.63 1.53 11.26 2.25 16.9.3 2.35 1.6 4.18 3.78 5.1 4.66 2.5 10.5 3.27 15.8 3.72 7.36.7 13.63.46 20.9-.9 4.38-.77 12.54-2.14 13.27-7.62.87-6.77 1.82-13.55 2.7-20.32l.36-2.06c2.48.6 9.55 1.9 8.67-2.96zm-38.6-38.82c9.18 0 19.6 1.07 27.75 5.56 1.3.68 4.23 2.2 3.35 4.1-.87 1.83-3.64 2.75-5.32 3.43-2.47.9-4.73 1.52-7.35 2.06-11.36 2.27-21.42 2.5-32.92.67-5.17-.53-9.47-1.83-14.13-4.1-1.1-.7-2.92-1.76-2.4-3.28.36-.85.94-1.46 1.74-1.9 3.56-2.3 6.84-3.67 11-4.43 6.25-1.52 11.8-2.2 18.27-2.13zm23.9 64.08c-.3 1.75-3.2 2.67-4.6 3.12-3.06 1.07-5.75 1.68-8.96 2.06-7.05.9-13.17.9-20.3 0-4.45-.38-8.16-1.37-12.17-3.35-1.1-.46-1.75-1.45-1.82-2.6-1.52-12.1-3.2-24.1-4.87-36.14l-1.75-13.08c3.64 1.98 7 3.2 11.07 3.88 4.44.92 8.16 1.37 12.67 1.68 8.75.6 16.25.23 24.9-1.37 4.6-.68 8.4-1.97 12.47-4.18l-3.22 23.82c-8.15-2.66-14.85-5.32-22.5-9.05-.37-.17-.66-.32-.95-.47-.44-.3-.3-.15-.5-.6-.37-.92-.45-1.53-1.25-2.3-.73-.53-1.53-.75-2.4-.68-1.9.08-3.35 1.75-3.2 3.66.14 1.83 1.82 3.28 3.7 3.13.52-.08.96-.23 1.54-.46.58-.15.58-.15 1.16.15 7.8 3.8 14.57 6.62 22.8 9.36 1.17.38 1.17 0 1.17 1-.07.75-.15 1.44-.3 2.2l-.94 7.23zm-23.46-36c0 .46-.57.4-.72.16-.22-.3.73-.7.73-.16zm29.94 10.66l.44-3.35c1.53.9 4.08 2.2 4.8 3.88-1.52.62-3.85-.14-5.24-.52z" stroke="#fff" stroke-opacity="0" stroke-width="2" fill="#fff"/><use xlink:href="#s" transform="matrix(1,0,0,1,-950,-157) translate(73.41975308641975 17.77777777777778)"/><path d="M-815.12-530.88v101.76h-95.76v-101.76h95.76M-806-540h-114v120h114v-120z" fill="#9d5025"/><path d="M-815.12-530.85v96.03h-95.76v-96.03h95.76M-806-540h-114v114.32h114V-540z" fill="#f58536"/><path d="M-905.54-522.08h40.43v22.4h-40.44v-22.4zM-860.9-522.08h40.43v22.4h-40.43v-22.4z" fill="#9d5025"/><path d="M-905.54-525.47h40.43v22.4h-40.44v-22.4z" fill="#f58536"/><path d="M-903.07-523.66h2.17v18.8h-2.17v-18.8zM-897.5-523.66h2.16v18.8h-2.17v-18.8zM-891.97-523.66h2.17v18.8h-2.17v-18.8zM-886.4-523.66h2.17v18.8h-2.16v-18.8zM-880.85-523.66h2.16v18.8h-2.15v-18.8zM-875.3-523.66h2.15v18.8h-2.16v-18.8zM-869.76-523.66h2.17v18.8h-2.16v-18.8z" fill="#fff"/><path d="M-860.9-525.47h40.43v22.4h-40.43v-22.4z" fill="#f58536"/><path d="M-858.4-523.66h2.17v18.8h-2.16v-18.8zM-852.85-523.66h2.16v18.8h-2.15v-18.8zM-847.3-523.66h2.15v18.8h-2.16v-18.8zM-841.75-523.66h2.17v18.8h-2.17v-18.8zM-836.2-523.66h2.16v18.8h-2.17v-18.8zM-830.66-523.66h2.17v18.8h-2.16v-18.8zM-825.1-523.66h2.16v18.8h-2.17v-18.8z" fill="#fff"/><path d="M-905.54-492.35h40.43v22.4h-40.44v-22.4zM-860.9-492.35h40.43v22.4h-40.43v-22.4z" fill="#9d5025"/><path d="M-905.54-495.73h40.43v22.4h-40.44v-22.4z" fill="#f58536"/><path d="M-903.07-493.93h2.17v18.8h-2.17v-18.8zM-897.5-493.93h2.16v18.8h-2.17v-18.8zM-891.97-493.93h2.17v18.8h-2.17v-18.8zM-886.4-493.93h2.17v18.8h-2.16v-18.8zM-880.85-493.93h2.16v18.8h-2.15v-18.8zM-875.3-493.93h2.15v18.8h-2.16v-18.8zM-869.76-493.93h2.17v18.8h-2.16v-18.8z" fill="#fff"/><path d="M-860.9-495.73h40.43v22.4h-40.43v-22.4z" fill="#f58536"/><path d="M-858.4-493.93h2.17v18.8h-2.16v-18.8zM-852.85-493.93h2.16v18.8h-2.15v-18.8zM-847.3-493.93h2.15v18.8h-2.16v-18.8zM-841.75-493.93h2.17v18.8h-2.17v-18.8zM-836.2-493.93h2.16v18.8h-2.17v-18.8zM-830.66-493.93h2.17v18.8h-2.16v-18.8zM-825.1-493.93h2.16v18.8h-2.17v-18.8z" fill="#fff"/><path d="M-905.54-462.62h40.43v22.4h-40.44v-22.4zM-860.9-462.62h40.43v22.4h-40.43v-22.4z" fill="#9d5025"/><path d="M-905.54-466h40.43v22.4h-40.44V-466z" fill="#f58536"/><path d="M-903.07-464.2h2.17v18.78h-2.17v-18.8zM-897.5-464.2h2.16v18.78h-2.17v-18.8zM-891.97-464.2h2.17v18.78h-2.17v-18.8zM-886.4-464.2h2.17v18.78h-2.16v-18.8zM-880.85-464.2h2.16v18.78h-2.15v-18.8zM-875.3-464.2h2.15v18.78h-2.16v-18.8zM-869.76-464.2h2.17v18.78h-2.16v-18.8z" fill="#fff"/><path d="M-860.9-466h40.43v22.4h-40.43V-466z" fill="#f58536"/><path d="M-858.4-464.2h2.17v18.78h-2.16v-18.8zM-852.85-464.2h2.16v18.78h-2.15v-18.8zM-847.3-464.2h2.15v18.78h-2.16v-18.8zM-841.75-464.2h2.17v18.78h-2.17v-18.8zM-836.2-464.2h2.16v18.78h-2.17v-18.8zM-830.66-464.2h2.17v18.78h-2.16v-18.8zM-825.1-464.2h2.16v18.78h-2.17v-18.8z" fill="#fff"/><use xlink:href="#t" transform="matrix(1,0,0,1,-920,-420) translate(33.60493827160494 17.77777777777778)"/><use xlink:href="#u" transform="matrix(1,0,0,1,-920,-420) translate(20.672839506172835 44.44444444444444)"/><path d="M-480-290.3v28.49c0 5.7-8.4 9.45-21.36 9.45-8.16 0-16.32-1.6-20.16-5l-21.96 14.58 21.72 14.6c3.72-3.77 12.36-5.48 20.4-5.48 12.24 0 20.52 3.53 21.24 8.9h.12v29.3c0 5.7-8.4 9.45-21.36 9.45-11.04 0-22.32-2.96-22.32-9.46v-27.7l-21.72-14.6v22.35c0 6.94-10.56 11.4-26.64 11.4-13.44 0-27.96-3.55-27.96-11.4v-56.2h.12c1.44-7.08 15.12-10.4 27.84-10.4 15.84 0 26.64 4.7 26.64 11.64 0 .46-.12.9-.24 1.37h.24v21.33l21.72-14.6v-27.58h.12c0-.12-.12-.23-.12-.46 0-6.62 11.64-9.7 22.32-9.7 12.84 0 21.36 3.88 21.36 9.7zm-114.6 27.24v11.97c0 2.63 8.76 6.5 22.56 6.5 13.8 0 21.12-3.76 21.12-6.5v-11.74c-4.68 2.5-12 4.1-21.12 4.1-8.4 0-17.04-1.36-22.56-4.32zm22.56 36.36c13.8 0 21.12-3.65 21.12-6.27v-10.6c-4.68 2.62-12 4.1-21.12 4.1-8.4 0-17.04-1.36-22.56-4.33v10.83c0 2.5 8.76 6.27 22.56 6.27zm0 17.56c13.8 0 21.12-3.65 21.12-6.27v-10.16c-4.68 2.62-12 4.1-21.12 4.1-8.4 0-17.04-1.36-22.56-4.33v10.4c0 2.15 7.8 6.26 22.56 6.26zm0-67.6c-14.76 0-22.56 4.2-22.56 6.38 0 2.28 7.8 6.38 22.56 6.38 13.56 0 21.12-3.76 21.12-6.38s-7.56-6.38-21.12-6.38zm70.68 5.47c10.56 0 15.96-2.85 15.96-4.45v-7.75c-3.84 1.82-9.24 2.85-15.96 2.85-6.12 0-12.48-1.03-16.8-3.08v7.98c0 1.37 5.76 4.45 16.8 4.45zm0 66.35c10.56 0 15.96-2.85 15.96-4.45v-7.75c-3.84 1.82-9.24 2.85-15.96 2.85-6.12 0-12.48-1.03-16.8-3.08v7.98c0 1.37 5.76 4.45 16.8 4.45zm0 13.68c10.44 0 15.96-2.74 15.96-4.22v-7.07c-3.72 1.82-9.24 2.85-15.96 2.85-6.24 0-12.48-.9-16.8-2.96v7.18c0 1.25 5.76 4.22 16.8 4.22zm0-66.35c10.44 0 15.96-2.73 15.96-4.2v-6.96c-3.72 1.7-9.24 2.73-15.96 2.73-6.24 0-12.48-.9-16.8-2.96v7.2c0 1.24 5.76 4.2 16.8 4.2zm0 29.2c-11.04 0-16.8 3.07-16.8 4.44 0 1.37 5.76 4.44 16.8 4.44 10.44 0 15.96-2.85 15.96-4.44 0-1.6-5.52-4.45-15.96-4.45zm0-66.36c-11.04 0-16.8 3.08-16.8 4.45 0 1.36 5.76 4.44 16.8 4.44 10.44 0 15.96-2.85 15.96-4.45s-5.52-4.46-15.96-4.46z" stroke="#000" stroke-opacity="0" fill="#2e27ad"/><use xlink:href="#v" transform="matrix(1,0,0,1,-630,-177) translate(20.674999999999983 14.4)"/><use xlink:href="#w" transform="matrix(1,0,0,1,-630,-177) translate(63.57499999999999 14.4)"/><use xlink:href="#x" transform="matrix(1,0,0,1,-630,-177) translate(106.425 14.4)"/><use xlink:href="#y" transform="matrix(1,0,0,1,-630,-177) translate(134.375 14.4)"/><use xlink:href="#z" transform="matrix(1,0,0,1,-630,-177) translate(61.574999999999996 36)"/><path d="M-80-290.3v28.49c0 5.7-8.4 9.45-21.36 9.45-8.16 0-16.32-1.6-20.16-5l-21.96 14.58 21.72 14.6c3.72-3.77 12.36-5.48 20.4-5.48 12.24 0 20.52 3.53 21.24 8.9h.12v29.3c0 5.7-8.4 9.45-21.36 9.45-11.04 0-22.32-2.96-22.32-9.46v-27.7l-21.72-14.6v22.35c0 6.94-10.56 11.4-26.64 11.4-13.44 0-27.96-3.55-27.96-11.4v-56.2h.12c1.44-7.08 15.12-10.4 27.84-10.4 15.84 0 26.64 4.7 26.64 11.64 0 .46-.12.9-.24 1.37h.24v21.33l21.72-14.6v-27.58h.12c0-.12-.12-.23-.12-.46 0-6.62 11.64-9.7 22.32-9.7 12.84 0 21.36 3.88 21.36 9.7zm-114.6 27.24v11.97c0 2.63 8.76 6.5 22.56 6.5 13.8 0 21.12-3.76 21.12-6.5v-11.74c-4.68 2.5-12 4.1-21.12 4.1-8.4 0-17.04-1.36-22.56-4.32zm22.56 36.36c13.8 0 21.12-3.65 21.12-6.27v-10.6c-4.68 2.62-12 4.1-21.12 4.1-8.4 0-17.04-1.36-22.56-4.33v10.83c0 2.5 8.76 6.27 22.56 6.27zm0 17.56c13.8 0 21.12-3.65 21.12-6.27v-10.16c-4.68 2.62-12 4.1-21.12 4.1-8.4 0-17.04-1.36-22.56-4.33v10.4c0 2.15 7.8 6.26 22.56 6.26zm0-67.6c-14.76 0-22.56 4.2-22.56 6.38 0 2.28 7.8 6.38 22.56 6.38 13.56 0 21.12-3.76 21.12-6.38s-7.56-6.38-21.12-6.38zm70.68 5.47c10.56 0 15.96-2.85 15.96-4.45v-7.75c-3.84 1.82-9.24 2.85-15.96 2.85-6.12 0-12.48-1.03-16.8-3.08v7.98c0 1.37 5.76 4.45 16.8 4.45zm0 66.35c10.56 0 15.96-2.85 15.96-4.45v-7.75c-3.84 1.82-9.24 2.85-15.96 2.85-6.12 0-12.48-1.03-16.8-3.08v7.98c0 1.37 5.76 4.45 16.8 4.45zm0 13.68c10.44 0 15.96-2.74 15.96-4.22v-7.07c-3.72 1.82-9.24 2.85-15.96 2.85-6.24 0-12.48-.9-16.8-2.96v7.18c0 1.25 5.76 4.22 16.8 4.22zm0-66.35c10.44 0 15.96-2.73 15.96-4.2v-6.96c-3.72 1.7-9.24 2.73-15.96 2.73-6.24 0-12.48-.9-16.8-2.96v7.2c0 1.24 5.76 4.2 16.8 4.2zm0 29.2c-11.04 0-16.8 3.07-16.8 4.44 0 1.37 5.76 4.44 16.8 4.44 10.44 0 15.96-2.85 15.96-4.44 0-1.6-5.52-4.45-15.96-4.45zm0-66.36c-11.04 0-16.8 3.08-16.8 4.45 0 1.36 5.76 4.44 16.8 4.44 10.44 0 15.96-2.85 15.96-4.45s-5.52-4.46-15.96-4.46z" stroke="#000" stroke-opacity="0" fill="#2e27ad"/><use xlink:href="#v" transform="matrix(1,0,0,1,-230,-177) translate(20.674999999999983 14.4)"/><use xlink:href="#w" transform="matrix(1,0,0,1,-230,-177) translate(63.57499999999999 14.4)"/><use xlink:href="#x" transform="matrix(1,0,0,1,-230,-177) translate(106.425 14.4)"/><use xlink:href="#y" transform="matrix(1,0,0,1,-230,-177) translate(134.375 14.4)"/><use xlink:href="#z" transform="matrix(1,0,0,1,-230,-177) translate(61.574999999999996 36)"/><path d="M320-290.3v28.49c0 5.7-8.4 9.45-21.36 9.45-8.16 0-16.32-1.6-20.16-5l-21.96 14.58 21.72 14.6c3.72-3.77 12.36-5.48 20.4-5.48 12.24 0 20.52 3.53 21.24 8.9h.12v29.3c0 5.7-8.4 9.45-21.36 9.45-11.04 0-22.32-2.96-22.32-9.46v-27.7l-21.72-14.6v22.35c0 6.94-10.56 11.4-26.64 11.4-13.44 0-27.96-3.55-27.96-11.4v-56.2h.12c1.44-7.08 15.12-10.4 27.84-10.4 15.84 0 26.64 4.7 26.64 11.64 0 .46-.12.9-.24 1.37h.24v21.33l21.72-14.6v-27.58h.12c0-.12-.12-.23-.12-.46 0-6.62 11.64-9.7 22.32-9.7 12.84 0 21.36 3.88 21.36 9.7zm-114.6 27.24v11.97c0 2.63 8.76 6.5 22.56 6.5 13.8 0 21.12-3.76 21.12-6.5v-11.74c-4.68 2.5-12 4.1-21.12 4.1-8.4 0-17.04-1.36-22.56-4.32zm22.56 36.36c13.8 0 21.12-3.65 21.12-6.27v-10.6c-4.68 2.62-12 4.1-21.12 4.1-8.4 0-17.04-1.36-22.56-4.33v10.83c0 2.5 8.76 6.27 22.56 6.27zm0 17.56c13.8 0 21.12-3.65 21.12-6.27v-10.16c-4.68 2.62-12 4.1-21.12 4.1-8.4 0-17.04-1.36-22.56-4.33v10.4c0 2.15 7.8 6.26 22.56 6.26zm0-67.6c-14.76 0-22.56 4.2-22.56 6.38 0 2.28 7.8 6.38 22.56 6.38 13.56 0 21.12-3.76 21.12-6.38s-7.56-6.38-21.12-6.38zm70.68 5.47c10.56 0 15.96-2.85 15.96-4.45v-7.75c-3.84 1.82-9.24 2.85-15.96 2.85-6.12 0-12.48-1.03-16.8-3.08v7.98c0 1.37 5.76 4.45 16.8 4.45zm0 66.35c10.56 0 15.96-2.85 15.96-4.45v-7.75c-3.84 1.82-9.24 2.85-15.96 2.85-6.12 0-12.48-1.03-16.8-3.08v7.98c0 1.37 5.76 4.45 16.8 4.45zm0 13.68c10.44 0 15.96-2.74 15.96-4.22v-7.07c-3.72 1.82-9.24 2.85-15.96 2.85-6.24 0-12.48-.9-16.8-2.96v7.18c0 1.25 5.76 4.22 16.8 4.22zm0-66.35c10.44 0 15.96-2.73 15.96-4.2v-6.96c-3.72 1.7-9.24 2.73-15.96 2.73-6.24 0-12.48-.9-16.8-2.96v7.2c0 1.24 5.76 4.2 16.8 4.2zm0 29.2c-11.04 0-16.8 3.07-16.8 4.44 0 1.37 5.76 4.44 16.8 4.44 10.44 0 15.96-2.85 15.96-4.44 0-1.6-5.52-4.45-15.96-4.45zm0-66.36c-11.04 0-16.8 3.08-16.8 4.45 0 1.36 5.76 4.44 16.8 4.44 10.44 0 15.96-2.85 15.96-4.45s-5.52-4.46-15.96-4.46z" stroke="#000" stroke-opacity="0" fill="#2e27ad"/><use xlink:href="#v" transform="matrix(1,0,0,1,170,-177) translate(20.674999999999983 14.4)"/><use xlink:href="#w" transform="matrix(1,0,0,1,170,-177) translate(63.57499999999999 14.4)"/><use xlink:href="#x" transform="matrix(1,0,0,1,170,-177) translate(106.425 14.4)"/><use xlink:href="#y" transform="matrix(1,0,0,1,170,-177) translate(134.375 14.4)"/><use xlink:href="#z" transform="matrix(1,0,0,1,170,-177) translate(61.574999999999996 36)"/><path d="M240-554.4h120v61.4H240v-61.4z" fill="#9d5025"/><path d="M240-560h120v61.4H240V-560z" fill="#f58536"/><path d="M265.92-556.33h5.65v54.08h-5.65v-54.08zM276.34-556.33H282v54.08h-5.66v-54.08zM286.75-556.33h5.65v54.08h-5.65v-54.08zM245.1-556.33h5.64v54.08h-5.65v-54.08zM255.5-556.33h5.66v54.08h-5.66v-54.08zM297.17-556.33h5.65v54.08h-5.65v-54.08zM307.58-556.33h5.66v54.08h-5.66v-54.08zM318-556.33h5.65v54.08H318v-54.08zM328.4-556.33h5.66v54.08h-5.66v-54.08zM338.82-556.33h5.65v54.08h-5.65v-54.08zM349.24-556.33h5.65v54.08h-5.66v-54.08z" fill="#fbbf93"/><path d="M246.56-554.87h4.2v52.62h-4.2v-52.62zM256.98-554.87h4.2v52.62h-4.2v-52.62zM267.4-554.87h4.18v52.62h-4.18v-52.62zM277.8-554.87h4.2v52.62h-4.2v-52.62zM288.22-554.87h4.18v52.62h-4.18v-52.62zM298.63-554.87h4.2v52.62h-4.2v-52.62zM309.05-554.87h4.2v52.62h-4.2v-52.62zM319.46-554.87h4.2v52.62h-4.2v-52.62zM329.88-554.87h4.2v52.62h-4.2v-52.62zM340.3-554.87h4.18v52.62h-4.18v-52.62zM350.7-554.87h4.2v52.62h-4.2v-52.62z" fill="#fff"/><use xlink:href="#A" transform="matrix(1,0,0,1,240,-493) translate(10.092592592592588 17.77777777777778)"/><use xlink:href="#B" transform="matrix(1,0,0,1,240,-493) translate(40.24691358024691 44.44444444444444)"/><path d="M-160-554.4h120v61.4h-120v-61.4z" fill="#9d5025"/><path d="M-160-560h120v61.4h-120V-560z" fill="#f58536"/><path d="M-134.08-556.33h5.65v54.08h-5.65v-54.08zM-123.66-556.33h5.65v54.08h-5.66v-54.08zM-113.25-556.33h5.65v54.08h-5.65v-54.08zM-154.9-556.33h5.64v54.08h-5.65v-54.08zM-144.5-556.33h5.66v54.08h-5.66v-54.08zM-102.83-556.33h5.65v54.08h-5.65v-54.08zM-92.42-556.33h5.66v54.08h-5.66v-54.08zM-82-556.33h5.65v54.08H-82v-54.08zM-71.6-556.33h5.66v54.08h-5.66v-54.08zM-61.18-556.33h5.65v54.08h-5.65v-54.08zM-50.76-556.33h5.65v54.08h-5.66v-54.08z" fill="#fbbf93"/><path d="M-153.44-554.87h4.2v52.62h-4.2v-52.62zM-143.02-554.87h4.2v52.62h-4.2v-52.62zM-132.6-554.87h4.18v52.62h-4.18v-52.62zM-122.2-554.87h4.2v52.62h-4.2v-52.62zM-111.78-554.87h4.18v52.62h-4.18v-52.62zM-101.37-554.87h4.2v52.62h-4.2v-52.62zM-90.95-554.87h4.2v52.62h-4.2v-52.62zM-80.54-554.87h4.2v52.62h-4.2v-52.62zM-70.12-554.87h4.2v52.62h-4.2v-52.62zM-59.7-554.87h4.18v52.62h-4.18v-52.62zM-49.3-554.87h4.2v52.62h-4.2v-52.62z" fill="#fff"/><use xlink:href="#A" transform="matrix(1,0,0,1,-160,-493) translate(10.092592592592588 17.77777777777778)"/><use xlink:href="#B" transform="matrix(1,0,0,1,-160,-493) translate(40.24691358024691 44.44444444444444)"/><path d="M-560-554.4h120v61.4h-120v-61.4z" fill="#9d5025"/><path d="M-560-560h120v61.4h-120V-560z" fill="#f58536"/><path d="M-534.08-556.33h5.65v54.08h-5.65v-54.08zM-523.66-556.33h5.65v54.08h-5.66v-54.08zM-513.25-556.33h5.65v54.08h-5.65v-54.08zM-554.9-556.33h5.64v54.08h-5.65v-54.08zM-544.5-556.33h5.66v54.08h-5.66v-54.08zM-502.83-556.33h5.65v54.08h-5.65v-54.08zM-492.42-556.33h5.66v54.08h-5.66v-54.08zM-482-556.33h5.65v54.08H-482v-54.08zM-471.6-556.33h5.66v54.08h-5.66v-54.08zM-461.18-556.33h5.65v54.08h-5.65v-54.08zM-450.76-556.33h5.65v54.08h-5.66v-54.08z" fill="#fbbf93"/><path d="M-553.44-554.87h4.2v52.62h-4.2v-52.62zM-543.02-554.87h4.2v52.62h-4.2v-52.62zM-532.6-554.87h4.18v52.62h-4.18v-52.62zM-522.2-554.87h4.2v52.62h-4.2v-52.62zM-511.78-554.87h4.18v52.62h-4.18v-52.62zM-501.37-554.87h4.2v52.62h-4.2v-52.62zM-490.95-554.87h4.2v52.62h-4.2v-52.62zM-480.54-554.87h4.2v52.62h-4.2v-52.62zM-470.12-554.87h4.2v52.62h-4.2v-52.62zM-459.7-554.87h4.18v52.62h-4.18v-52.62zM-449.3-554.87h4.2v52.62h-4.2v-52.62z" fill="#fff"/><g><use xlink:href="#A" transform="matrix(1,0,0,1,-560,-493) translate(10.092592592592588 17.77777777777778)"/><use xlink:href="#B" transform="matrix(1,0,0,1,-560,-493) translate(40.24691358024691 44.44444444444444)"/></g><path d="M-393.7-640c-14.52 0-26.3-11.78-26.3-26.3 0-14.5 11.78-26.28 26.3-26.28 14.5 0 26.28 11.78 26.28 26.3 0 14.5-11.77 26.28-26.3 26.28zm0-50.32c-13.3 0-24.04 10.72-24.04 24.03 0 13.3 10.73 24.04 24.03 24.04S-369.7-653-369.7-666.3s-10.72-24.02-24.03-24.02z" stroke="#fff" stroke-opacity="0" fill="#693cc5"/><path d="M-390.56-651.53h-9.22v-2.25h8.1v-22.92h-8.1v-2.25h9.22c.62 0 1.12.5 1.12 1.13v25.16c0 .63-.5 1.13-1.12 1.13z" stroke="#fff" stroke-opacity="0" fill="#693cc5"/><path d="M-400-666.36h19.92v2.24H-400v-2.24zM-407.35-672.5c-.17 0-.32-.04-.48-.13-.4-.18-.63-.56-.63-1v-8.4c0-.43.23-.8.63-1 .4-.2.84-.15 1.2.13l5.22 4.2c.27.22.42.52.42.87s-.15.66-.43.87l-5.24 4.2c-.2.17-.44.25-.7.25zm1.12-7.2v3.74l2.34-1.87zM-407.35-659.93c-.17 0-.32-.03-.48-.1-.4-.2-.63-.58-.63-1v-8.4c0-.45.23-.82.63-1 .4-.2.84-.16 1.2.12l5.22 4.2c.27.2.42.5.42.86 0 .35-.15.66-.43.87l-5.24 4.2c-.2.17-.44.24-.7.24zm1.12-7.18v3.73l2.34-1.87z" stroke="#fff" stroke-opacity="0" fill="#693cc5"/><path d="M-379.03-658.9c-.15 0-.28 0-.42-.06-.44-.18-.7-.57-.7-1.04v-10.5c0-.6.5-1.1 1.12-1.1.3 0 .57.1.8.32l5.25 5.24c.42.45.42 1.15 0 1.58l-5.25 5.26c-.23.2-.5.32-.8.32zm1.12-8.93v5.1l2.54-2.56zM-407.34-648.4c-.18 0-.33-.02-.5-.1-.4-.2-.63-.57-.63-1v-8.4c0-.62.5-1.12 1.12-1.12.27 0 .5.08.7.25l5.24 4.2c.47.37.55 1.1.17 1.56l-.18.16-5.24 4.2c-.2.17-.44.25-.7.25zm1.1-7.18v3.74l2.35-1.87zM6.3-640C-8.23-640-20-651.78-20-666.3c0-14.5 11.78-26.28 26.3-26.28 14.5 0 26.28 11.78 26.28 26.3 0 14.5-11.77 26.28-26.3 26.28zm0-50.32c-13.3 0-24.04 10.72-24.04 24.03 0 13.3 10.73 24.04 24.03 24.04S30.3-653 30.3-666.3 19.6-690.3 6.3-690.3z" stroke="#fff" stroke-opacity="0" fill="#693cc5"/><path d="M9.44-651.53H.22v-2.25h8.1v-22.92H.22v-2.25h9.22c.62 0 1.12.5 1.12 1.13v25.16c0 .63-.5 1.13-1.12 1.13z" stroke="#fff" stroke-opacity="0" fill="#693cc5"/><path d="M0-666.36H19.9v2.24H0v-2.24zM-7.35-672.5c-.17 0-.32-.04-.48-.13-.4-.18-.63-.56-.63-1v-8.4c0-.43.23-.8.63-1 .4-.2.84-.15 1.2.13l5.22 4.2c.27.22.42.52.42.87s-.15.66-.43.87l-5.24 4.2c-.2.17-.44.25-.7.25zm1.12-7.2v3.74l2.34-1.87zM-7.35-659.93c-.17 0-.32-.03-.48-.1-.4-.2-.63-.58-.63-1v-8.4c0-.45.23-.82.63-1 .4-.2.84-.16 1.2.12l5.22 4.2c.27.2.42.5.42.86 0 .35-.15.66-.43.87l-5.24 4.2c-.2.17-.44.24-.7.24zm1.12-7.18v3.73l2.34-1.87z" stroke="#fff" stroke-opacity="0" fill="#693cc5"/><path d="M20.97-658.9c-.15 0-.28 0-.42-.06-.44-.18-.7-.57-.7-1.04v-10.5c0-.6.5-1.1 1.12-1.1.3 0 .57.1.8.32l5.25 5.24c.42.45.42 1.15 0 1.58l-5.25 5.26c-.23.2-.5.32-.8.32zm1.12-8.93v5.1l2.54-2.56zM-7.34-648.4c-.18 0-.33-.02-.5-.1-.4-.2-.63-.57-.63-1v-8.4c0-.62.5-1.12 1.12-1.12.27 0 .5.08.7.25l5.24 4.2c.47.37.55 1.1.17 1.56l-.18.16-5.24 4.2c-.2.17-.44.25-.7.25zm1.1-7.18v3.74l2.35-1.87zM406.3-640c-14.52 0-26.3-11.78-26.3-26.3 0-14.5 11.78-26.28 26.3-26.28 14.5 0 26.28 11.78 26.28 26.3 0 14.5-11.77 26.28-26.3 26.28zm0-50.32c-13.3 0-24.04 10.72-24.04 24.03 0 13.3 10.73 24.04 24.03 24.04S430.3-653 430.3-666.3 419.6-690.3 406.3-690.3z" stroke="#fff" stroke-opacity="0" fill="#693cc5"/><path d="M409.44-651.53h-9.22v-2.25h8.1v-22.92h-8.1v-2.25h9.22c.62 0 1.12.5 1.12 1.13v25.16c0 .63-.5 1.13-1.12 1.13z" stroke="#fff" stroke-opacity="0" fill="#693cc5"/><path d="M400-666.36h19.92v2.24H400v-2.24zM392.65-672.5c-.17 0-.32-.04-.48-.13-.4-.18-.63-.56-.63-1v-8.4c0-.43.23-.8.63-1 .4-.2.84-.15 1.2.13l5.22 4.2c.27.22.42.52.42.87s-.15.66-.43.87l-5.24 4.2c-.2.17-.44.25-.7.25zm1.12-7.2v3.74l2.34-1.87zM392.65-659.93c-.17 0-.32-.03-.48-.1-.4-.2-.63-.58-.63-1v-8.4c0-.45.23-.82.63-1 .4-.2.84-.16 1.2.12l5.22 4.2c.27.2.42.5.42.86 0 .35-.15.66-.43.87l-5.24 4.2c-.2.17-.44.24-.7.24zm1.12-7.18v3.73l2.34-1.87z" stroke="#fff" stroke-opacity="0" fill="#693cc5"/><path d="M420.97-658.9c-.15 0-.28 0-.42-.06-.44-.18-.7-.57-.7-1.04v-10.5c0-.6.5-1.1 1.12-1.1.3 0 .57.1.8.32l5.25 5.24c.42.45.42 1.15 0 1.58l-5.25 5.26c-.23.2-.5.32-.8.32zm1.12-8.93v5.1l2.54-2.56zM392.66-648.4c-.18 0-.33-.02-.5-.1-.4-.2-.63-.57-.63-1v-8.4c0-.62.5-1.12 1.12-1.12.27 0 .5.08.7.25l5.24 4.2c.47.37.55 1.1.17 1.56l-.18.16-5.24 4.2c-.2.17-.44.25-.7.25zm1.1-7.18v3.74l2.35-1.87zM-10-940c-16.56 0-30-13.44-30-30 0-16.56 13.44-30 30-30 16.56 0 30 13.44 30 30 0 16.56-13.44 30-30 30zm0-57.42c-15.18 0-27.42 12.24-27.42 27.42 0 15.18 12.24 27.42 27.42 27.42 15.18 0 27.42-12.24 27.42-27.42 0-15.18-12.24-27.42-27.42-27.42z" stroke="#fff" stroke-opacity="0" fill="#693cc5"/><path d="M4.36-951.97h-4.8c-.7 0-1.27-.57-1.27-1.28V-978c-2.6-1.36-5.08-1.96-8-2.03-3.18.07-5.84.78-8.65 2.3v24.48c0 .7-.56 1.28-1.25 1.28h-4.76c-.7 0-1.28-.57-1.28-1.28v-27.84c0-.38.16-.7.44-.95 4.57-3.75 9.63-5.5 15.5-5.35 5.58-.1 10.37 1.46 14.84 4.75.34.25.5.6.5 1v28.4c0 .7-.56 1.28-1.28 1.28zm-3.5-2.55h2.2v-26.5c-3.9-2.7-8-3.9-12.75-3.83-5.02-.14-9.37 1.28-13.37 4.33v26h2.2v-24.02c0-.5.24-.92.67-1.13 3.38-1.92 6.63-2.84 10.5-2.9 3.55.1 6.55.88 9.68 2.54H.1c.47.2.75.64.75 1.17z" stroke="#fff" stroke-opacity="0" fill="#693cc5"/><path d="M-79.5-860H274a6 6 0 0 1 6 6v236.62" stroke="#3a414a" fill="none"/><path d="M-79.5-859.52h-.53l.03-.48-.02-.48h.53z" stroke="#3a414a" stroke-width=".05" fill="#3a414a"/><path d="M280-602.62l-4.63-14.26h9.26z" stroke="#3a414a" fill="#3a414a"/><path d="M-160.5-860H-514a6 6 0 0 0-6 6v236.62" stroke="#3a414a" fill="none"/><path d="M-160-860l.02.48h-.53v-.96h.53z" stroke="#3a414a" stroke-width=".05" fill="#3a414a"/><path d="M-520-602.62l-4.63-14.26h9.26z" stroke="#3a414a" fill="#3a414a"/><path d="M-120-819.5v202.12" stroke="#3a414a" fill="none"/><path d="M-120-820l.47-.02v.53h-.94v-.53z" stroke="#3a414a" stroke-width=".05" fill="#3a414a"/><path d="M-120-602.62l-4.64-14.26h9.28z" stroke="#3a414a" fill="#3a414a"/><defs><path fill="#248814" d="M137 0h-34L2-248h35l83 218 83-218h36" id="C"/><path fill="#248814" d="M24-231v-30h32v30H24zM24 0v-190h32V0H24" id="D"/><path fill="#248814" d="M114-163C36-179 61-72 57 0H25l-1-190h30c1 12-1 29 2 39 6-27 23-49 58-41v29" id="E"/><path fill="#248814" d="M59-47c-2 24 18 29 38 22v24C64 9 27 4 27-40v-127H5v-23h24l9-43h21v43h35v23H59v120" id="F"/><path fill="#248814" d="M84 4C-5 8 30-112 23-190h32v120c0 31 7 50 39 49 72-2 45-101 50-169h31l1 190h-30c-1-10 1-25-2-33-11 22-28 36-60 37" id="G"/><path fill="#248814" d="M141-36C126-15 110 5 73 4 37 3 15-17 15-53c-1-64 63-63 125-63 3-35-9-54-41-54-24 1-41 7-42 31l-33-3c5-37 33-52 76-52 45 0 72 20 72 64v82c-1 20 7 32 28 27v20c-31 9-61-2-59-35zM48-53c0 20 12 33 32 33 41-3 63-29 60-74-43 2-92-5-92 41" id="H"/><path fill="#248814" d="M24 0v-261h32V0H24" id="I"/><g id="a"><use transform="matrix(0.05,0,0,0.05,0,0)" xlink:href="#C"/><use transform="matrix(0.05,0,0,0.05,11.65,0)" xlink:href="#D"/><use transform="matrix(0.05,0,0,0.05,15.600000000000001,0)" xlink:href="#E"/><use transform="matrix(0.05,0,0,0.05,21.55,0)" xlink:href="#F"/><use transform="matrix(0.05,0,0,0.05,26.55,0)" xlink:href="#G"/><use transform="matrix(0.05,0,0,0.05,36.55,0)" xlink:href="#H"/><use transform="matrix(0.05,0,0,0.05,46.55,0)" xlink:href="#I"/></g><path fill="#248814" d="M30-248c87 1 191-15 191 75 0 78-77 80-158 76V0H30v-248zm33 125c57 0 124 11 124-50 0-59-68-47-124-48v98" id="J"/><path fill="#248814" d="M108 0H70L1-190h34L89-25l56-165h34" id="K"/><path fill="#248814" d="M100-194c63 0 86 42 84 106H49c0 40 14 67 53 68 26 1 43-12 49-29l28 8c-11 28-37 45-77 45C44 4 14-33 15-96c1-61 26-98 85-98zm52 81c6-60-76-77-97-28-3 7-6 17-6 28h103" id="L"/><g id="b"><use transform="matrix(0.05,0,0,0.05,0,0)" xlink:href="#J"/><use transform="matrix(0.05,0,0,0.05,12,0)" xlink:href="#E"/><use transform="matrix(0.05,0,0,0.05,17.95,0)" xlink:href="#D"/><use transform="matrix(0.05,0,0,0.05,21.9,0)" xlink:href="#K"/><use transform="matrix(0.05,0,0,0.05,30.899999999999995,0)" xlink:href="#H"/><use transform="matrix(0.05,0,0,0.05,40.9,0)" xlink:href="#F"/><use transform="matrix(0.05,0,0,0.05,45.9,0)" xlink:href="#L"/></g><path fill="#248814" d="M212-179c-10-28-35-45-73-45-59 0-87 40-87 99 0 60 29 101 89 101 43 0 62-24 78-52l27 14C228-24 195 4 139 4 59 4 22-46 18-125c-6-104 99-153 187-111 19 9 31 26 39 46" id="M"/><path fill="#248814" d="M100-194c62-1 85 37 85 99 1 63-27 99-86 99S16-35 15-95c0-66 28-99 85-99zM99-20c44 1 53-31 53-75 0-43-8-75-51-75s-53 32-53 75 10 74 51 75" id="N"/><path fill="#248814" d="M85-194c31 0 48 13 60 33l-1-100h32l1 261h-30c-2-10 0-23-3-31C134-8 116 4 85 4 32 4 16-35 15-94c0-66 23-100 70-100zm9 24c-40 0-46 34-46 75 0 40 6 74 45 74 42 0 51-32 51-76 0-42-9-74-50-73" id="O"/><g id="c"><use transform="matrix(0.05,0,0,0.05,0,0)" xlink:href="#M"/><use transform="matrix(0.05,0,0,0.05,12.950000000000001,0)" xlink:href="#I"/><use transform="matrix(0.05,0,0,0.05,16.900000000000002,0)" xlink:href="#N"/><use transform="matrix(0.05,0,0,0.05,26.900000000000002,0)" xlink:href="#G"/><use transform="matrix(0.05,0,0,0.05,36.900000000000006,0)" xlink:href="#O"/></g><path fill="#232f3e" d="M205 0l-28-72H64L36 0H1l101-248h38L239 0h-34zm-38-99l-47-123c-12 45-31 82-46 123h93" id="P"/><path fill="#232f3e" d="M266 0h-40l-56-210L115 0H75L2-248h35L96-30l15-64 43-154h32l59 218 59-218h35" id="Q"/><path fill="#232f3e" d="M185-189c-5-48-123-54-124 2 14 75 158 14 163 119 3 78-121 87-175 55-17-10-28-26-33-46l33-7c5 56 141 63 141-1 0-78-155-14-162-118-5-82 145-84 179-34 5 7 8 16 11 25" id="R"/><g id="d"><use transform="matrix(0.05,0,0,0.05,0,0)" xlink:href="#P"/><use transform="matrix(0.05,0,0,0.05,11.35,0)" xlink:href="#Q"/><use transform="matrix(0.05,0,0,0.05,28.299999999999997,0)" xlink:href="#R"/></g><path fill="#232f3e" d="M212-179c-10-28-35-45-73-45-59 0-87 40-87 99 0 60 29 101 89 101 43 0 62-24 78-52l27 14C228-24 195 4 139 4 59 4 22-46 18-125c-6-104 99-153 187-111 19 9 31 26 39 46" id="S"/><path fill="#232f3e" d="M24 0v-261h32V0H24" id="T"/><path fill="#232f3e" d="M100-194c62-1 85 37 85 99 1 63-27 99-86 99S16-35 15-95c0-66 28-99 85-99zM99-20c44 1 53-31 53-75 0-43-8-75-51-75s-53 32-53 75 10 74 51 75" id="U"/><path fill="#232f3e" d="M84 4C-5 8 30-112 23-190h32v120c0 31 7 50 39 49 72-2 45-101 50-169h31l1 190h-30c-1-10 1-25-2-33-11 22-28 36-60 37" id="V"/><path fill="#232f3e" d="M85-194c31 0 48 13 60 33l-1-100h32l1 261h-30c-2-10 0-23-3-31C134-8 116 4 85 4 32 4 16-35 15-94c0-66 23-100 70-100zm9 24c-40 0-46 34-46 75 0 40 6 74 45 74 42 0 51-32 51-76 0-42-9-74-50-73" id="W"/><g id="e"><use transform="matrix(0.05,0,0,0.05,0,0)" xlink:href="#S"/><use transform="matrix(0.05,0,0,0.05,12.950000000000001,0)" xlink:href="#T"/><use transform="matrix(0.05,0,0,0.05,16.900000000000002,0)" xlink:href="#U"/><use transform="matrix(0.05,0,0,0.05,26.900000000000002,0)" xlink:href="#V"/><use transform="matrix(0.05,0,0,0.05,36.900000000000006,0)" xlink:href="#W"/></g><path fill="#147eba" d="M205 0l-28-72H64L36 0H1l101-248h38L239 0h-34zm-38-99l-47-123c-12 45-31 82-46 123h93" id="X"/><path fill="#147eba" d="M108 0H70L1-190h34L89-25l56-165h34" id="Y"/><path fill="#147eba" d="M141-36C126-15 110 5 73 4 37 3 15-17 15-53c-1-64 63-63 125-63 3-35-9-54-41-54-24 1-41 7-42 31l-33-3c5-37 33-52 76-52 45 0 72 20 72 64v82c-1 20 7 32 28 27v20c-31 9-61-2-59-35zM48-53c0 20 12 33 32 33 41-3 63-29 60-74-43 2-92-5-92 41" id="Z"/><path fill="#147eba" d="M24-231v-30h32v30H24zM24 0v-190h32V0H24" id="aa"/><path fill="#147eba" d="M24 0v-261h32V0H24" id="ab"/><path fill="#147eba" d="M115-194c53 0 69 39 70 98 0 66-23 100-70 100C84 3 66-7 56-30L54 0H23l1-261h32v101c10-23 28-34 59-34zm-8 174c40 0 45-34 45-75 0-40-5-75-45-74-42 0-51 32-51 76 0 43 10 73 51 73" id="ac"/><path fill="#147eba" d="M59-47c-2 24 18 29 38 22v24C64 9 27 4 27-40v-127H5v-23h24l9-43h21v43h35v23H59v120" id="ad"/><path fill="#147eba" d="M179-190L93 31C79 59 56 82 12 73V49c39 6 53-20 64-50L1-190h34L92-34l54-156h33" id="ae"/><g id="f"><use transform="matrix(0.05,0,0,0.05,0,0)" xlink:href="#X"/><use transform="matrix(0.05,0,0,0.05,11.65,0)" xlink:href="#Y"/><use transform="matrix(0.05,0,0,0.05,20.65,0)" xlink:href="#Z"/><use transform="matrix(0.05,0,0,0.05,30.649999999999995,0)" xlink:href="#aa"/><use transform="matrix(0.05,0,0,0.05,34.6,0)" xlink:href="#ab"/><use transform="matrix(0.05,0,0,0.05,38.550000000000004,0)" xlink:href="#Z"/><use transform="matrix(0.05,0,0,0.05,48.550000000000004,0)" xlink:href="#ac"/><use transform="matrix(0.05,0,0,0.05,58.550000000000004,0)" xlink:href="#aa"/><use transform="matrix(0.05,0,0,0.05,62.5,0)" xlink:href="#ab"/><use transform="matrix(0.05,0,0,0.05,66.45,0)" xlink:href="#aa"/><use transform="matrix(0.05,0,0,0.05,70.4,0)" xlink:href="#ad"/><use transform="matrix(0.05,0,0,0.05,75.4,0)" xlink:href="#ae"/></g><path fill="#147eba" d="M209 0H11v-25l151-195H24v-28h176v25L50-27h159V0" id="af"/><path fill="#147eba" d="M100-194c62-1 85 37 85 99 1 63-27 99-86 99S16-35 15-95c0-66 28-99 85-99zM99-20c44 1 53-31 53-75 0-43-8-75-51-75s-53 32-53 75 10 74 51 75" id="ag"/><path fill="#147eba" d="M117-194c89-4 53 116 60 194h-32v-121c0-31-8-49-39-48C34-167 62-67 57 0H25l-1-190h30c1 10-1 24 2 32 11-22 29-35 61-36" id="ah"/><path fill="#147eba" d="M100-194c63 0 86 42 84 106H49c0 40 14 67 53 68 26 1 43-12 49-29l28 8c-11 28-37 45-77 45C44 4 14-33 15-96c1-61 26-98 85-98zm52 81c6-60-76-77-97-28-3 7-6 17-6 28h103" id="ai"/><g id="g"><use transform="matrix(0.05,0,0,0.05,0,0)" xlink:href="#af"/><use transform="matrix(0.05,0,0,0.05,10.950000000000001,0)" xlink:href="#ag"/><use transform="matrix(0.05,0,0,0.05,20.950000000000003,0)" xlink:href="#ah"/><use transform="matrix(0.05,0,0,0.05,30.950000000000003,0)" xlink:href="#ai"/></g><path fill="#dd3522" d="M185-189c-5-48-123-54-124 2 14 75 158 14 163 119 3 78-121 87-175 55-17-10-28-26-33-46l33-7c5 56 141 63 141-1 0-78-155-14-162-118-5-82 145-84 179-34 5 7 8 16 11 25" id="aj"/><path fill="#dd3522" d="M100-194c63 0 86 42 84 106H49c0 40 14 67 53 68 26 1 43-12 49-29l28 8c-11 28-37 45-77 45C44 4 14-33 15-96c1-61 26-98 85-98zm52 81c6-60-76-77-97-28-3 7-6 17-6 28h103" id="ak"/><path fill="#dd3522" d="M96-169c-40 0-48 33-48 73s9 75 48 75c24 0 41-14 43-38l32 2c-6 37-31 61-74 61-59 0-76-41-82-99-10-93 101-131 147-64 4 7 5 14 7 22l-32 3c-4-21-16-35-41-35" id="al"/><path fill="#dd3522" d="M84 4C-5 8 30-112 23-190h32v120c0 31 7 50 39 49 72-2 45-101 50-169h31l1 190h-30c-1-10 1-25-2-33-11 22-28 36-60 37" id="am"/><path fill="#dd3522" d="M114-163C36-179 61-72 57 0H25l-1-190h30c1 12-1 29 2 39 6-27 23-49 58-41v29" id="an"/><path fill="#dd3522" d="M24-231v-30h32v30H24zM24 0v-190h32V0H24" id="ao"/><path fill="#dd3522" d="M59-47c-2 24 18 29 38 22v24C64 9 27 4 27-40v-127H5v-23h24l9-43h21v43h35v23H59v120" id="ap"/><path fill="#dd3522" d="M179-190L93 31C79 59 56 82 12 73V49c39 6 53-20 64-50L1-190h34L92-34l54-156h33" id="aq"/><g id="h"><use transform="matrix(0.05,0,0,0.05,0,0)" xlink:href="#aj"/><use transform="matrix(0.05,0,0,0.05,12,0)" xlink:href="#ak"/><use transform="matrix(0.05,0,0,0.05,22,0)" xlink:href="#al"/><use transform="matrix(0.05,0,0,0.05,31,0)" xlink:href="#am"/><use transform="matrix(0.05,0,0,0.05,41,0)" xlink:href="#an"/><use transform="matrix(0.05,0,0,0.05,46.95,0)" xlink:href="#ao"/><use transform="matrix(0.05,0,0,0.05,50.900000000000006,0)" xlink:href="#ap"/><use transform="matrix(0.05,0,0,0.05,55.900000000000006,0)" xlink:href="#aq"/></g><path fill="#dd3522" d="M143 4C61 4 22-44 18-125c-5-107 100-154 193-111 17 8 29 25 37 43l-32 9c-13-25-37-40-76-40-61 0-88 39-88 99 0 61 29 100 91 101 35 0 62-11 79-27v-45h-74v-28h105v86C228-13 192 4 143 4" id="ar"/><path fill="#dd3522" d="M100-194c62-1 85 37 85 99 1 63-27 99-86 99S16-35 15-95c0-66 28-99 85-99zM99-20c44 1 53-31 53-75 0-43-8-75-51-75s-53 32-53 75 10 74 51 75" id="as"/><path fill="#dd3522" d="M115-194c55 1 70 41 70 98S169 2 115 4C84 4 66-9 55-30l1 105H24l-1-265h31l2 30c10-21 28-34 59-34zm-8 174c40 0 45-34 45-75s-6-73-45-74c-42 0-51 32-51 76 0 43 10 73 51 73" id="at"/><g id="i"><use transform="matrix(0.05,0,0,0.05,0,0)" xlink:href="#ar"/><use transform="matrix(0.05,0,0,0.05,14,0)" xlink:href="#an"/><use transform="matrix(0.05,0,0,0.05,19.95,0)" xlink:href="#as"/><use transform="matrix(0.05,0,0,0.05,29.950000000000003,0)" xlink:href="#am"/><use transform="matrix(0.05,0,0,0.05,39.95,0)" xlink:href="#at"/></g><path fill="#147eba" d="M30-248c87 1 191-15 191 75 0 78-77 80-158 76V0H30v-248zm33 125c57 0 124 11 124-50 0-59-68-47-124-48v98" id="au"/><path fill="#147eba" d="M114-163C36-179 61-72 57 0H25l-1-190h30c1 12-1 29 2 39 6-27 23-49 58-41v29" id="av"/><g id="j"><use transform="matrix(0.05,0,0,0.05,0,0)" xlink:href="#au"/><use transform="matrix(0.05,0,0,0.05,12,0)" xlink:href="#av"/><use transform="matrix(0.05,0,0,0.05,17.95,0)" xlink:href="#aa"/><use transform="matrix(0.05,0,0,0.05,21.9,0)" xlink:href="#Y"/><use transform="matrix(0.05,0,0,0.05,30.899999999999995,0)" xlink:href="#Z"/><use transform="matrix(0.05,0,0,0.05,40.9,0)" xlink:href="#ad"/><use transform="matrix(0.05,0,0,0.05,45.9,0)" xlink:href="#ai"/></g><path fill="#147eba" d="M185-189c-5-48-123-54-124 2 14 75 158 14 163 119 3 78-121 87-175 55-17-10-28-26-33-46l33-7c5 56 141 63 141-1 0-78-155-14-162-118-5-82 145-84 179-34 5 7 8 16 11 25" id="aw"/><path fill="#147eba" d="M84 4C-5 8 30-112 23-190h32v120c0 31 7 50 39 49 72-2 45-101 50-169h31l1 190h-30c-1-10 1-25-2-33-11 22-28 36-60 37" id="ax"/><g id="k"><use transform="matrix(0.05,0,0,0.05,0,0)" xlink:href="#aw"/><use transform="matrix(0.05,0,0,0.05,12,0)" xlink:href="#ax"/><use transform="matrix(0.05,0,0,0.05,22,0)" xlink:href="#ac"/><use transform="matrix(0.05,0,0,0.05,32,0)" xlink:href="#ah"/><use transform="matrix(0.05,0,0,0.05,42,0)" xlink:href="#ai"/><use transform="matrix(0.05,0,0,0.05,52,0)" xlink:href="#ad"/></g><path fill="#248814" d="M115-194c53 0 69 39 70 98 0 66-23 100-70 100C84 3 66-7 56-30L54 0H23l1-261h32v101c10-23 28-34 59-34zm-8 174c40 0 45-34 45-75 0-40-5-75-45-74-42 0-51 32-51 76 0 43 10 73 51 73" id="ay"/><path fill="#248814" d="M96-169c-40 0-48 33-48 73s9 75 48 75c24 0 41-14 43-38l32 2c-6 37-31 61-74 61-59 0-76-41-82-99-10-93 101-131 147-64 4 7 5 14 7 22l-32 3c-4-21-16-35-41-35" id="az"/><g id="l"><use transform="matrix(0.05,0,0,0.05,0,0)" xlink:href="#J"/><use transform="matrix(0.05,0,0,0.05,12,0)" xlink:href="#G"/><use transform="matrix(0.05,0,0,0.05,22,0)" xlink:href="#ay"/><use transform="matrix(0.05,0,0,0.05,32,0)" xlink:href="#I"/><use transform="matrix(0.05,0,0,0.05,35.95,0)" xlink:href="#D"/><use transform="matrix(0.05,0,0,0.05,39.900000000000006,0)" xlink:href="#az"/></g><path fill="#248814" d="M185-189c-5-48-123-54-124 2 14 75 158 14 163 119 3 78-121 87-175 55-17-10-28-26-33-46l33-7c5 56 141 63 141-1 0-78-155-14-162-118-5-82 145-84 179-34 5 7 8 16 11 25" id="aA"/><path fill="#248814" d="M117-194c89-4 53 116 60 194h-32v-121c0-31-8-49-39-48C34-167 62-67 57 0H25l-1-190h30c1 10-1 24 2 32 11-22 29-35 61-36" id="aB"/><g id="m"><use transform="matrix(0.05,0,0,0.05,0,0)" xlink:href="#aA"/><use transform="matrix(0.05,0,0,0.05,12,0)" xlink:href="#G"/><use transform="matrix(0.05,0,0,0.05,22,0)" xlink:href="#ay"/><use transform="matrix(0.05,0,0,0.05,32,0)" xlink:href="#aB"/><use transform="matrix(0.05,0,0,0.05,42,0)" xlink:href="#L"/><use transform="matrix(0.05,0,0,0.05,52,0)" xlink:href="#F"/></g><path fill="#d86613" d="M30 0v-248h187v28H63v79h144v27H63v87h162V0H30" id="aC"/><path fill="#d86613" d="M212-179c-10-28-35-45-73-45-59 0-87 40-87 99 0 60 29 101 89 101 43 0 62-24 78-52l27 14C228-24 195 4 139 4 59 4 22-46 18-125c-6-104 99-153 187-111 19 9 31 26 39 46" id="aD"/><path fill="#d86613" d="M185-189c-5-48-123-54-124 2 14 75 158 14 163 119 3 78-121 87-175 55-17-10-28-26-33-46l33-7c5 56 141 63 141-1 0-78-155-14-162-118-5-82 145-84 179-34 5 7 8 16 11 25" id="aE"/><g id="n"><use transform="matrix(0.05,0,0,0.05,0,0)" xlink:href="#aC"/><use transform="matrix(0.05,0,0,0.05,12,0)" xlink:href="#aD"/><use transform="matrix(0.05,0,0,0.05,24.950000000000003,0)" xlink:href="#aE"/></g><path fill="#d86613" d="M101-251c82-7 93 87 43 132L82-64C71-53 59-42 53-27h129V0H18c2-99 128-94 128-182 0-28-16-43-45-43s-46 15-49 41l-32-3c6-41 34-60 81-64" id="aF"/><g id="o"><use transform="matrix(0.05,0,0,0.05,0,0)" xlink:href="#aC"/><use transform="matrix(0.05,0,0,0.05,12,0)" xlink:href="#aD"/><use transform="matrix(0.05,0,0,0.05,24.950000000000003,0)" xlink:href="#aF"/></g><path fill="#d86613" d="M100-194c62-1 85 37 85 99 1 63-27 99-86 99S16-35 15-95c0-66 28-99 85-99zM99-20c44 1 53-31 53-75 0-43-8-75-51-75s-53 32-53 75 10 74 51 75" id="aG"/><path fill="#d86613" d="M117-194c89-4 53 116 60 194h-32v-121c0-31-8-49-39-48C34-167 62-67 57 0H25l-1-190h30c1 10-1 24 2 32 11-22 29-35 61-36" id="aH"/><path fill="#d86613" d="M59-47c-2 24 18 29 38 22v24C64 9 27 4 27-40v-127H5v-23h24l9-43h21v43h35v23H59v120" id="aI"/><path fill="#d86613" d="M141-36C126-15 110 5 73 4 37 3 15-17 15-53c-1-64 63-63 125-63 3-35-9-54-41-54-24 1-41 7-42 31l-33-3c5-37 33-52 76-52 45 0 72 20 72 64v82c-1 20 7 32 28 27v20c-31 9-61-2-59-35zM48-53c0 20 12 33 32 33 41-3 63-29 60-74-43 2-92-5-92 41" id="aJ"/><path fill="#d86613" d="M24-231v-30h32v30H24zM24 0v-190h32V0H24" id="aK"/><path fill="#d86613" d="M100-194c63 0 86 42 84 106H49c0 40 14 67 53 68 26 1 43-12 49-29l28 8c-11 28-37 45-77 45C44 4 14-33 15-96c1-61 26-98 85-98zm52 81c6-60-76-77-97-28-3 7-6 17-6 28h103" id="aL"/><path fill="#d86613" d="M114-163C36-179 61-72 57 0H25l-1-190h30c1 12-1 29 2 39 6-27 23-49 58-41v29" id="aM"/><g id="p"><use transform="matrix(0.05,0,0,0.05,0,0)" xlink:href="#aD"/><use transform="matrix(0.05,0,0,0.05,12.950000000000001,0)" xlink:href="#aG"/><use transform="matrix(0.05,0,0,0.05,22.950000000000003,0)" xlink:href="#aH"/><use transform="matrix(0.05,0,0,0.05,32.95,0)" xlink:href="#aI"/><use transform="matrix(0.05,0,0,0.05,37.95,0)" xlink:href="#aJ"/><use transform="matrix(0.05,0,0,0.05,47.95,0)" xlink:href="#aK"/><use transform="matrix(0.05,0,0,0.05,51.900000000000006,0)" xlink:href="#aH"/><use transform="matrix(0.05,0,0,0.05,61.900000000000006,0)" xlink:href="#aL"/><use transform="matrix(0.05,0,0,0.05,71.9,0)" xlink:href="#aM"/></g><path fill="#3a414a" d="M30 0v-248h33v221h125V0H30" id="aN"/><path fill="#3a414a" d="M100-194c62-1 85 37 85 99 1 63-27 99-86 99S16-35 15-95c0-66 28-99 85-99zM99-20c44 1 53-31 53-75 0-43-8-75-51-75s-53 32-53 75 10 74 51 75" id="aO"/><path fill="#3a414a" d="M141-36C126-15 110 5 73 4 37 3 15-17 15-53c-1-64 63-63 125-63 3-35-9-54-41-54-24 1-41 7-42 31l-33-3c5-37 33-52 76-52 45 0 72 20 72 64v82c-1 20 7 32 28 27v20c-31 9-61-2-59-35zM48-53c0 20 12 33 32 33 41-3 63-29 60-74-43 2-92-5-92 41" id="aP"/><path fill="#3a414a" d="M85-194c31 0 48 13 60 33l-1-100h32l1 261h-30c-2-10 0-23-3-31C134-8 116 4 85 4 32 4 16-35 15-94c0-66 23-100 70-100zm9 24c-40 0-46 34-46 75 0 40 6 74 45 74 42 0 51-32 51-76 0-42-9-74-50-73" id="aQ"/><g id="q"><use transform="matrix(0.06172839506172839,0,0,0.06172839506172839,0,0)" xlink:href="#aN"/><use transform="matrix(0.06172839506172839,0,0,0.06172839506172839,12.345679012345679,0)" xlink:href="#aO"/><use transform="matrix(0.06172839506172839,0,0,0.06172839506172839,24.691358024691358,0)" xlink:href="#aP"/><use transform="matrix(0.06172839506172839,0,0,0.06172839506172839,37.03703703703704,0)" xlink:href="#aQ"/></g><path fill="#3a414a" d="M160-131c35 5 61 23 61 61C221 17 115-2 30 0v-248c76 3 177-17 177 60 0 33-19 50-47 57zm-97-11c50-1 110 9 110-42 0-47-63-36-110-37v79zm0 115c55-2 124 14 124-45 0-56-70-42-124-44v89" id="aR"/><path fill="#3a414a" d="M24 0v-261h32V0H24" id="aS"/><path fill="#3a414a" d="M117-194c89-4 53 116 60 194h-32v-121c0-31-8-49-39-48C34-167 62-67 57 0H25l-1-190h30c1 10-1 24 2 32 11-22 29-35 61-36" id="aT"/><path fill="#3a414a" d="M96-169c-40 0-48 33-48 73s9 75 48 75c24 0 41-14 43-38l32 2c-6 37-31 61-74 61-59 0-76-41-82-99-10-93 101-131 147-64 4 7 5 14 7 22l-32 3c-4-21-16-35-41-35" id="aU"/><path fill="#3a414a" d="M100-194c63 0 86 42 84 106H49c0 40 14 67 53 68 26 1 43-12 49-29l28 8c-11 28-37 45-77 45C44 4 14-33 15-96c1-61 26-98 85-98zm52 81c6-60-76-77-97-28-3 7-6 17-6 28h103" id="aV"/><path fill="#3a414a" d="M114-163C36-179 61-72 57 0H25l-1-190h30c1 12-1 29 2 39 6-27 23-49 58-41v29" id="aW"/><g id="r"><use transform="matrix(0.06172839506172839,0,0,0.06172839506172839,0,0)" xlink:href="#aR"/><use transform="matrix(0.06172839506172839,0,0,0.06172839506172839,14.814814814814813,0)" xlink:href="#aP"/><use transform="matrix(0.06172839506172839,0,0,0.06172839506172839,27.160493827160494,0)" xlink:href="#aS"/><use transform="matrix(0.06172839506172839,0,0,0.06172839506172839,32.03703703703704,0)" xlink:href="#aP"/><use transform="matrix(0.06172839506172839,0,0,0.06172839506172839,44.382716049382715,0)" xlink:href="#aT"/><use transform="matrix(0.06172839506172839,0,0,0.06172839506172839,56.72839506172839,0)" xlink:href="#aU"/><use transform="matrix(0.06172839506172839,0,0,0.06172839506172839,67.8395061728395,0)" xlink:href="#aV"/><use transform="matrix(0.06172839506172839,0,0,0.06172839506172839,80.18518518518519,0)" xlink:href="#aW"/></g><path fill="#3a414a" d="M185-189c-5-48-123-54-124 2 14 75 158 14 163 119 3 78-121 87-175 55-17-10-28-26-33-46l33-7c5 56 141 63 141-1 0-78-155-14-162-118-5-82 145-84 179-34 5 7 8 16 11 25" id="aX"/><path fill="#3a414a" d="M126-127c33 6 58 20 58 59 0 88-139 92-164 29-3-8-5-16-6-25l32-3c6 27 21 44 54 44 32 0 52-15 52-46 0-38-36-46-79-43v-28c39 1 72-4 72-42 0-27-17-43-46-43-28 0-47 15-49 41l-32-3c6-42 35-63 81-64 48-1 79 21 79 65 0 36-21 52-52 59" id="aY"/><g id="s"><use transform="matrix(0.06172839506172839,0,0,0.06172839506172839,0,0)" xlink:href="#aX"/><use transform="matrix(0.06172839506172839,0,0,0.06172839506172839,14.814814814814813,0)" xlink:href="#aY"/></g><path fill="#3a414a" d="M30 0v-248h187v28H63v79h144v27H63v87h162V0H30" id="aZ"/><path fill="#3a414a" d="M212-179c-10-28-35-45-73-45-59 0-87 40-87 99 0 60 29 101 89 101 43 0 62-24 78-52l27 14C228-24 195 4 139 4 59 4 22-46 18-125c-6-104 99-153 187-111 19 9 31 26 39 46" id="ba"/><path fill="#3a414a" d="M233-177c-1 41-23 64-60 70L243 0h-38l-65-103H63V0H30v-248c88 3 205-21 203 71zM63-129c60-2 137 13 137-47 0-61-80-42-137-45v92" id="bb"/><g id="t"><use transform="matrix(0.06172839506172839,0,0,0.06172839506172839,0,0)" xlink:href="#aZ"/><use transform="matrix(0.06172839506172839,0,0,0.06172839506172839,14.814814814814813,0)" xlink:href="#ba"/><use transform="matrix(0.06172839506172839,0,0,0.06172839506172839,30.80246913580247,0)" xlink:href="#bb"/></g><path fill="#3a414a" d="M177-190C167-65 218 103 67 71c-23-6-38-20-44-43l32-5c15 47 100 32 89-28v-30C133-14 115 1 83 1 29 1 15-40 15-95c0-56 16-97 71-98 29-1 48 16 59 35 1-10 0-23 2-32h30zM94-22c36 0 50-32 50-73 0-42-14-75-50-75-39 0-46 34-46 75s6 73 46 73" id="bc"/><path fill="#3a414a" d="M24-231v-30h32v30H24zM24 0v-190h32V0H24" id="bd"/><path fill="#3a414a" d="M135-143c-3-34-86-38-87 0 15 53 115 12 119 90S17 21 10-45l28-5c4 36 97 45 98 0-10-56-113-15-118-90-4-57 82-63 122-42 12 7 21 19 24 35" id="be"/><path fill="#3a414a" d="M59-47c-2 24 18 29 38 22v24C64 9 27 4 27-40v-127H5v-23h24l9-43h21v43h35v23H59v120" id="bf"/><path fill="#3a414a" d="M179-190L93 31C79 59 56 82 12 73V49c39 6 53-20 64-50L1-190h34L92-34l54-156h33" id="bg"/><g id="u"><use transform="matrix(0.06172839506172839,0,0,0.06172839506172839,0,0)" xlink:href="#aW"/><use transform="matrix(0.06172839506172839,0,0,0.06172839506172839,7.345679012345679,0)" xlink:href="#aV"/><use transform="matrix(0.06172839506172839,0,0,0.06172839506172839,19.691358024691358,0)" xlink:href="#bc"/><use transform="matrix(0.06172839506172839,0,0,0.06172839506172839,32.03703703703704,0)" xlink:href="#bd"/><use transform="matrix(0.06172839506172839,0,0,0.06172839506172839,36.91358024691358,0)" xlink:href="#be"/><use transform="matrix(0.06172839506172839,0,0,0.06172839506172839,48.0246913580247,0)" xlink:href="#bf"/><use transform="matrix(0.06172839506172839,0,0,0.06172839506172839,54.19753086419754,0)" xlink:href="#aW"/><use transform="matrix(0.06172839506172839,0,0,0.06172839506172839,61.543209876543216,0)" xlink:href="#bg"/></g><path d="M233-177c-1 41-23 64-60 70L243 0h-38l-65-103H63V0H30v-248c88 3 205-21 203 71zM63-129c60-2 137 13 137-47 0-61-80-42-137-45v92" id="bh"/><path d="M30-248c118-7 216 8 213 122C240-48 200 0 122 0H30v-248zM63-27c89 8 146-16 146-99s-60-101-146-95v194" id="bi"/><path d="M185-189c-5-48-123-54-124 2 14 75 158 14 163 119 3 78-121 87-175 55-17-10-28-26-33-46l33-7c5 56 141 63 141-1 0-78-155-14-162-118-5-82 145-84 179-34 5 7 8 16 11 25" id="bj"/><g id="v"><use transform="matrix(0.05,0,0,0.05,0,0)" xlink:href="#bh"/><use transform="matrix(0.05,0,0,0.05,12.950000000000001,0)" xlink:href="#bi"/><use transform="matrix(0.05,0,0,0.05,25.900000000000002,0)" xlink:href="#bj"/></g><path d="M240 0l2-218c-23 76-54 145-80 218h-23L58-218 59 0H30v-248h44l77 211c21-75 51-140 76-211h43V0h-30" id="bk"/><path d="M84 4C-5 8 30-112 23-190h32v120c0 31 7 50 39 49 72-2 45-101 50-169h31l1 190h-30c-1-10 1-25-2-33-11 22-28 36-60 37" id="bl"/><path d="M24 0v-261h32V0H24" id="bm"/><path d="M59-47c-2 24 18 29 38 22v24C64 9 27 4 27-40v-127H5v-23h24l9-43h21v43h35v23H59v120" id="bn"/><path d="M24-231v-30h32v30H24zM24 0v-190h32V0H24" id="bo"/><g id="w"><use transform="matrix(0.05,0,0,0.05,0,0)" xlink:href="#bk"/><use transform="matrix(0.05,0,0,0.05,14.950000000000001,0)" xlink:href="#bl"/><use transform="matrix(0.05,0,0,0.05,24.950000000000003,0)" xlink:href="#bm"/><use transform="matrix(0.05,0,0,0.05,28.900000000000002,0)" xlink:href="#bn"/><use transform="matrix(0.05,0,0,0.05,33.900000000000006,0)" xlink:href="#bo"/></g><path d="M205 0l-28-72H64L36 0H1l101-248h38L239 0h-34zm-38-99l-47-123c-12 45-31 82-46 123h93" id="bp"/><path d="M209 0H11v-25l151-195H24v-28h176v25L50-27h159V0" id="bq"/><g id="x"><use transform="matrix(0.05,0,0,0.05,0,0)" xlink:href="#bp"/><use transform="matrix(0.05,0,0,0.05,12,0)" xlink:href="#bq"/></g><path d="M160-131c35 5 61 23 61 61C221 17 115-2 30 0v-248c76 3 177-17 177 60 0 33-19 50-47 57zm-97-11c50-1 110 9 110-42 0-47-63-36-110-37v79zm0 115c55-2 124 14 124-45 0-56-70-42-124-44v89" id="br"/><g id="y"><use transform="matrix(0.05,0,0,0.05,0,0)" xlink:href="#bi"/><use transform="matrix(0.05,0,0,0.05,12.950000000000001,0)" xlink:href="#br"/></g><path d="M212-179c-10-28-35-45-73-45-59 0-87 40-87 99 0 60 29 101 89 101 43 0 62-24 78-52l27 14C228-24 195 4 139 4 59 4 22-46 18-125c-6-104 99-153 187-111 19 9 31 26 39 46" id="bs"/><path d="M135-143c-3-34-86-38-87 0 15 53 115 12 119 90S17 21 10-45l28-5c4 36 97 45 98 0-10-56-113-15-118-90-4-57 82-63 122-42 12 7 21 19 24 35" id="bt"/><path d="M100-194c63 0 86 42 84 106H49c0 40 14 67 53 68 26 1 43-12 49-29l28 8c-11 28-37 45-77 45C44 4 14-33 15-96c1-61 26-98 85-98zm52 81c6-60-76-77-97-28-3 7-6 17-6 28h103" id="bu"/><path d="M114-163C36-179 61-72 57 0H25l-1-190h30c1 12-1 29 2 39 6-27 23-49 58-41v29" id="bv"/><g id="z"><use transform="matrix(0.05,0,0,0.05,0,0)" xlink:href="#bs"/><use transform="matrix(0.05,0,0,0.05,12.950000000000001,0)" xlink:href="#bm"/><use transform="matrix(0.05,0,0,0.05,16.900000000000002,0)" xlink:href="#bl"/><use transform="matrix(0.05,0,0,0.05,26.900000000000002,0)" xlink:href="#bt"/><use transform="matrix(0.05,0,0,0.05,35.900000000000006,0)" xlink:href="#bn"/><use transform="matrix(0.05,0,0,0.05,40.900000000000006,0)" xlink:href="#bu"/><use transform="matrix(0.05,0,0,0.05,50.900000000000006,0)" xlink:href="#bv"/></g><path fill="#3a414a" d="M106-169C34-169 62-67 57 0H25v-261h32l-1 103c12-21 28-36 61-36 89 0 53 116 60 194h-32v-121c2-32-8-49-39-48" id="bw"/><g id="A"><use transform="matrix(0.06172839506172839,0,0,0.06172839506172839,0,0)" xlink:href="#ba"/><use transform="matrix(0.06172839506172839,0,0,0.06172839506172839,15.987654320987653,0)" xlink:href="#bw"/><use transform="matrix(0.06172839506172839,0,0,0.06172839506172839,28.333333333333332,0)" xlink:href="#aP"/><use transform="matrix(0.06172839506172839,0,0,0.06172839506172839,40.67901234567901,0)" xlink:href="#aS"/><use transform="matrix(0.06172839506172839,0,0,0.06172839506172839,45.55555555555556,0)" xlink:href="#aS"/><use transform="matrix(0.06172839506172839,0,0,0.06172839506172839,50.4320987654321,0)" xlink:href="#aV"/><use transform="matrix(0.06172839506172839,0,0,0.06172839506172839,62.77777777777778,0)" xlink:href="#aT"/><use transform="matrix(0.06172839506172839,0,0,0.06172839506172839,75.12345679012346,0)" xlink:href="#bc"/><use transform="matrix(0.06172839506172839,0,0,0.06172839506172839,87.46913580246914,0)" xlink:href="#aV"/></g><path fill="#3a414a" d="M205 0l-28-72H64L36 0H1l101-248h38L239 0h-34zm-38-99l-47-123c-12 45-31 82-46 123h93" id="bx"/><path fill="#3a414a" d="M115-194c55 1 70 41 70 98S169 2 115 4C84 4 66-9 55-30l1 105H24l-1-265h31l2 30c10-21 28-34 59-34zm-8 174c40 0 45-34 45-75s-6-73-45-74c-42 0-51 32-51 76 0 43 10 73 51 73" id="by"/><g id="B"><use transform="matrix(0.06172839506172839,0,0,0.06172839506172839,0,0)" xlink:href="#bx"/><use transform="matrix(0.06172839506172839,0,0,0.06172839506172839,14.814814814814813,0)" xlink:href="#by"/><use transform="matrix(0.06172839506172839,0,0,0.06172839506172839,27.160493827160494,0)" xlink:href="#by"/></g></defs></g></svg>